<?xml version="1.0" encoding="UTF-8"?>
<svg width="27px" height="27px" viewBox="0 0 27 27" version="1.1" xmlns="http://www.w3.org/2000/svg" xmlns:xlink="http://www.w3.org/1999/xlink">
    <!-- Generator: Sketch 49.1 (51147) - http://www.bohemiancoding.com/sketch -->
    <title>avatar-default</title>
    <desc>Created with Sketch.</desc>
    <defs></defs>
    <g id="Page-1" stroke="none" stroke-width="1" fill="none" fill-rule="evenodd">
        <g id="avatar-default" transform="translate(1.000000, 1.000000)" fill="#FFFFFF" fill-rule="nonzero">
            <path d="M12.5,25.5 C5.32029825,25.5 -0.5,19.6797017 -0.5,12.5 C-0.5,5.32029825 5.32029825,-0.5 12.5,-0.5 C19.6797017,-0.5 25.5,5.32029825 25.5,12.5 C25.5,19.6797017 19.6797017,25.5 12.5,25.5 Z M12.5,24.5 C19.127417,24.5 24.5,19.127417 24.5,12.5 C24.5,5.872583 19.127417,0.5 12.5,0.5 C5.872583,0.5 0.5,5.872583 0.5,12.5 C0.5,19.127417 5.872583,24.5 12.5,24.5 Z" id="Oval-2"></path>
            <path d="M14.4752407,10.5553449 C14.3894208,10.8178131 14.1070774,10.9610148 13.8446093,10.8751949 C13.5821411,10.789375 13.4389394,10.5070316 13.5247593,10.2445635 C13.8573881,9.22726505 14.5393283,8.66650681 15.5,8.66650681 C16.4606717,8.66650681 17.1426119,9.22726505 17.4752407,10.2445635 C17.5610606,10.5070316 17.4178589,10.789375 17.1553907,10.8751949 C16.8929226,10.9610148 16.6105792,10.8178131 16.5247593,10.5553449 C16.3196499,9.92804684 16.0015901,9.66650681 15.5,9.66650681 C14.9984099,9.66650681 14.6803501,9.92804684 14.4752407,10.5553449 Z" id="Line-6-Copy"></path>
            <path d="M8.47427998,10.558253 C8.38685398,10.8201906 8.10363883,10.9616602 7.84170123,10.8742342 C7.57976363,10.7868082 7.43829402,10.503593 7.52572002,10.2416554 C7.85955795,9.24144146 8.54209879,8.69161356 9.5,8.69161356 C10.4579012,8.69161356 11.140442,9.24144145 11.47428,10.2416554 C11.561706,10.503593 11.4202364,10.7868082 11.1582988,10.8742342 C10.8963612,10.9616602 10.613146,10.8201906 10.52572,10.558253 C10.3218198,9.9473461 10.0043606,9.69161356 9.5,9.69161356 C8.99563939,9.69161356 8.67818023,9.9473461 8.47427998,10.558253 Z" id="Line-6-Copy-2"></path>
            <path d="M11,14 L14,14 L14,14.5 C14,15.3284271 13.3284271,16 12.5,16 C11.6715729,16 11,15.3284271 11,14.5 L11,14 Z" id="Rectangle-2"></path>
        </g>
    </g>
</svg>