<?xml version="1.0" encoding="UTF-8"?>
<svg width="12px" height="10px" viewBox="0 0 12 10" version="1.1" xmlns="http://www.w3.org/2000/svg" xmlns:xlink="http://www.w3.org/1999/xlink">
    <g id="Symbols" stroke="none" stroke-width="1" fill="none" fill-rule="evenodd">
        <g id="player-actions/chromecast-normal" transform="translate(-14.000000, -16.000000)" fill="#FFFFFF">
            <g transform="translate(0.000000, 0.975369)" id="icon/chromecast">
                <g transform="translate(14.000000, 15.000000)">
                    <path d="M2.73459,9.99802564 C2.47128,9.99802564 2.25789,9.77507977 2.25789,9.50004843 C2.25789,9.00310541 2.07261,8.53593447 1.73619,8.18449858 C1.39977,7.83318803 0.95259,7.63963818 0.47688,7.63963818 C0.21342,7.63966952 0,7.41672365 0,7.14169231 C0,6.86662963 0.21342,6.6437151 0.4767,6.6437151 C1.20699,6.6437151 1.89369,6.94080912 2.4102,7.48021652 C2.9268,8.01981197 3.2112,8.73716239 3.2112,9.50017379 C3.2112,9.77514245 2.99775,9.99808832 2.73459,9.99808832 L2.73459,9.99802564 Z" id="Shape"></path>
                    <path d="M4.99215,9.99802564 C4.72884,9.99802564 4.51545,9.77507977 4.51545,9.50004843 C4.51545,8.37309687 4.09533,7.31361823 3.33255,6.51676068 C2.56971,5.71990313 1.55547,5.28106268 0.47673,5.28106268 C0.21348,5.28106268 3e-05,5.05811681 3e-05,4.78308547 C3e-05,4.50799145 0.21348,4.28504558 0.47673,4.28504558 C1.81023,4.28504558 3.06384,4.82752422 4.00692,5.81250997 C4.94982,6.79749573 5.46912,8.10709117 5.46912,9.50007977 C5.46894,9.77514245 5.25552,9.99805698 4.99221,9.99805698 L4.99215,9.99802564 Z M0.59895,9.9961453 C0.44163,9.9961453 0.28905,9.92892308 0.17709,9.81318803 C0.06633,9.69723362 0.00318,9.53662108 0.00318,9.37350142 C0.00318,9.20912821 0.06633,9.04851567 0.17709,8.93287464 C0.28908,8.81707692 0.44163,8.7498547 0.59898,8.7498547 C0.75513,8.7498547 0.90888,8.81707692 1.01964,8.93287464 C1.13043,9.04851567 1.19478,9.20912821 1.19478,9.37350142 C1.19478,9.53662108 1.13043,9.69723362 1.01964,9.81318803 C0.90888,9.92882906 0.75513,9.99608262 0.59898,9.99608262 L0.59895,9.9961453 Z" id="Shape"></path>
                    <path d="M11.57826,9.7317094 L6.25386,9.7317094 C6.02094,9.7317094 5.83212,9.53452422 5.83212,9.29120798 C5.83212,9.0478604 6.02094,8.85064387 6.25386,8.85064387 L11.15652,8.85064387 L11.15652,0.904757835 L0.84348,0.904757835 L0.84348,3.32773504 C0.84348,3.57105128 0.65466,3.76829915 0.42174,3.76829915 C0.18879,3.76829915 0,3.57108262 0,3.32773504 L0,0.464131054 C0,0.220877493 0.18879,0.0236609687 0.42174,0.0236609687 L11.57826,0.0236609687 C11.81121,0.0236609687 12,0.220846154 12,0.464131054 L12,9.29139601 C12,9.53458689 11.81121,9.73180342 11.57826,9.73180342 L11.57826,9.7317094 Z" id="Shape"></path>
                </g>
            </g>
        </g>
    </g>
</svg>
