<?xml version="1.0" encoding="UTF-8"?>
<svg width="16px" height="16px" viewBox="0 0 16 16" version="1.1" xmlns="http://www.w3.org/2000/svg" xmlns:xlink="http://www.w3.org/1999/xlink">
    <g id="Designs" stroke="none" stroke-width="1" fill="none" fill-rule="evenodd">
        <g id="010---MCGL---On-Demand---Detalle-de-Película---Alquiler-2" transform="translate(-936.000000, -201.000000)" fill="#FFFFFF">
            <g id="Modal-Window---Iniciar-Sesion" transform="translate(289.000000, 167.000000)">
                <path d="M654.571068,40.863961 L661.288582,34.1464466 C661.483844,33.9511845 661.800427,33.9511845 661.995689,34.1464466 C662.190951,34.3417088 662.190951,34.6582912 661.995689,34.8535534 L655.278175,41.5710678 L661.995689,48.2885822 C662.190951,48.4838444 662.190951,48.8004269 661.995689,48.995689 C661.800427,49.1909512 661.483844,49.1909512 661.288582,48.995689 L654.571068,42.2781746 L647.853553,48.995689 C647.658291,49.1909512 647.341709,49.1909512 647.146447,48.995689 C646.951184,48.8004269 646.951184,48.4838444 647.146447,48.2885822 L653.863961,41.5710678 L647.146447,34.8535534 C646.951184,34.6582912 646.951184,34.3417088 647.146447,34.1464466 C647.341709,33.9511845 647.658291,33.9511845 647.853553,34.1464466 L654.571068,40.863961 Z" id="icons/close-modal"></path>
            </g>
        </g>
    </g>
</svg>
