<?xml version="1.0" encoding="UTF-8"?>
<svg width="16px" height="16px" viewBox="0 0 16 16" version="1.1" xmlns="http://www.w3.org/2000/svg" xmlns:xlink="http://www.w3.org/1999/xlink">
    <g id="Page-1" stroke="none" stroke-width="1" fill="none" fill-rule="evenodd">
        <g id="close" fill="#FFFFFF" fill-rule="nonzero">
            <path d="M8,1 C4.13400675,1 1,4.13400675 1,8 C1,11.8659932 4.13400675,15 8,15 C11.8659932,15 15,11.8659932 15,8 C15,4.13400675 11.8659932,1 8,1 Z M8,0 C12.418278,-8.28966525e-16 16,3.581722 16,8 C16,12.418278 12.418278,16 8,16 C3.581722,16 5.92118946e-16,12.418278 0,8 C-5.32907052e-16,3.581722 3.581722,8.28966525e-16 8,0 Z" id="circle"></path>
            <path d="M8.12132034,7.41421356 L9.8890873,5.64644661 C10.0843494,5.45118446 10.4009319,5.45118446 10.5961941,5.64644661 C10.7914562,5.84170876 10.7914562,6.15829124 10.5961941,6.35355339 L8.82842712,8.12132034 L10.5961941,9.8890873 C10.7914562,10.0843494 10.7914562,10.4009319 10.5961941,10.5961941 C10.4009319,10.7914562 10.0843494,10.7914562 9.8890873,10.5961941 L8.12132034,8.82842712 L6.35355339,10.5961941 C6.15829124,10.7914562 5.84170876,10.7914562 5.64644661,10.5961941 C5.45118446,10.4009319 5.45118446,10.0843494 5.64644661,9.8890873 L7.41421356,8.12132034 L5.64644661,6.35355339 C5.45118446,6.15829124 5.45118446,5.84170876 5.64644661,5.64644661 C5.84170876,5.45118446 6.15829124,5.45118446 6.35355339,5.64644661 L8.12132034,7.41421356 Z" id="Combined-Shape"></path>
        </g>
    </g>
</svg>
