<?xml version="1.0" encoding="UTF-8"?>
<svg width="40px" height="43px" viewBox="0 0 40 43" version="1.1" xmlns="http://www.w3.org/2000/svg" xmlns:xlink="http://www.w3.org/1999/xlink">
    <!-- Generator: Sketch 49.1 (51147) - http://www.bohemiancoding.com/sketch -->
    <title>delete</title>
    <desc>Created with Sketch.</desc>
    <defs></defs>
    <g id="Page-1" stroke="none" stroke-width="1" fill="none" fill-rule="evenodd">
        <g id="delete" transform="translate(1.000000, 1.000000)" fill="#FFFFFF" fill-rule="nonzero">
            <path d="M4.03239089,6.47365525 L5.52960911,6.38234475 L7.531,39.222 C7.531,39.4503425 7.72076951,39.64 7.949,39.64 L30.297,39.64 C30.5252305,39.64 30.715,39.4503425 30.7163909,39.1763448 L32.7163909,6.38234475 L34.2136091,6.47365525 L32.215,39.222 C32.215,40.278968 31.3534594,41.14 30.297,41.14 L7.949,41.14 C6.8925406,41.14 6.031,40.278968 6.03239089,39.2676552 L4.03239089,6.47365525 Z" id="Stroke-1"></path>
            <path d="M12.75,16 C12.75,15.5857864 13.0857864,15.25 13.5,15.25 C13.9142136,15.25 14.25,15.5857864 14.25,16 L14.25,30 C14.25,30.4142136 13.9142136,30.75 13.5,30.75 C13.0857864,30.75 12.75,30.4142136 12.75,30 L12.75,16 Z" id="Line"></path>
            <path d="M22.75,16 C22.75,15.5857864 23.0857864,15.25 23.5,15.25 C23.9142136,15.25 24.25,15.5857864 24.25,16 L24.25,30 C24.25,30.4142136 23.9142136,30.75 23.5,30.75 C23.0857864,30.75 22.75,30.4142136 22.75,30 L22.75,16 Z" id="Line"></path>
            <path d="M17.75,14 C17.75,13.5857864 18.0857864,13.25 18.5,13.25 C18.9142136,13.25 19.25,13.5857864 19.25,14 L19.25,32 C19.25,32.4142136 18.9142136,32.75 18.5,32.75 C18.0857864,32.75 17.75,32.4142136 17.75,32 L17.75,14 Z" id="Line"></path>
            <path d="M0,6.75 C-0.414213562,6.75 -0.75,6.41421356 -0.75,6 C-0.75,5.58578644 -0.414213562,5.25 0,5.25 L38,5.25 C38.4142136,5.25 38.75,5.58578644 38.75,6 C38.75,6.41421356 38.4142136,6.75 38,6.75 L0,6.75 Z" id="Stroke-2"></path>
            <path d="M13.203,5.287 L11.703,5.287 L11.703,1.577 C11.703,0.534786438 12.5527864,-0.315 13.595,-0.315 L24.44,-0.315 C25.4822136,-0.315 26.332,0.534786438 26.332,1.577 L26.332,5.287 L24.832,5.287 L24.832,1.577 C24.832,1.36321356 24.6537864,1.185 24.44,1.185 L13.595,1.185 C13.3812136,1.185 13.203,1.36321356 13.203,1.577 L13.203,5.287 Z" id="Stroke-3"></path>
        </g>
    </g>
</svg>