<?xml version="1.0" encoding="UTF-8"?>
<svg width="16px" height="16px" viewBox="0 0 16 16" version="1.1" xmlns="http://www.w3.org/2000/svg" xmlns:xlink="http://www.w3.org/1999/xlink">
    <!-- Generator: Sketch 49.1 (51147) - http://www.bohemiancoding.com/sketch -->
    <title>done</title>
    <desc>Created with Sketch.</desc>
    <defs></defs>
    <g id="Page-1" stroke="none" stroke-width="1" fill="none" fill-rule="evenodd">
        <g id="done" fill="#42BFFE" fill-rule="nonzero">
            <path d="M8,1 C4.13400675,1 1,4.13400675 1,8 C1,11.8659932 4.13400675,15 8,15 C11.8659932,15 15,11.8659932 15,8 C15,4.13400675 11.8659932,1 8,1 Z M8,0 C12.418278,-8.28966525e-16 16,3.581722 16,8 C16,12.418278 12.418278,16 8,16 C3.581722,16 5.92118946e-16,12.418278 0,8 C-5.32907052e-16,3.581722 3.581722,8.28966525e-16 8,0 Z" id="circle"></path>
            <path d="M10.6192925,5.58622414 C10.7963848,5.37434458 11.1117087,5.34614389 11.3235883,5.52323613 C11.5354678,5.70032838 11.5636685,6.01565233 11.3865763,6.22753189 L7.37151755,11.0312932 C7.18347755,11.2562711 6.84309663,11.2718997 6.63523159,11.0650997 L5.00331465,9.44154487 C4.8075516,9.24678492 4.80673842,8.93020348 5.00149837,8.73444042 C5.19625832,8.53867737 5.51283976,8.53786419 5.70860282,8.73262414 L6.95394193,9.97158204 L10.6192925,5.58622414 Z" id="Path-2"></path>
        </g>
    </g>
</svg>