<svg version="1.1"
	 xmlns="http://www.w3.org/2000/svg" xmlns:xlink="http://www.w3.org/1999/xlink" xmlns:a="http://ns.adobe.com/AdobeSVGViewerExtensions/3.0/"
	 x="0px" y="0px" width="27.5px" height="27.6px" viewBox="0 0 27.5 27.6" style="enable-background:new 0 0 27.5 27.6;"
	 xml:space="preserve">
<g id="Page-1_1_">
	<g id="if_Jee-03_2180487_1_">
		<path id="Shape_1_" style="fill:none;stroke:#303030;stroke-width:0.7;stroke-linecap:round;stroke-linejoin:round;" d="
			M13.2,27.2H2.9c-1.4,0-2.5-1.1-2.5-2.5V2.9c0-1.4,1.1-2.5,2.5-2.5h21.8c1.4,0,2.5,1.1,2.5,2.5v21.9c0,1.4-1.1,2.5-2.5,2.5h-7.1
			v-8.6H21l0.6-4.1l-3.9-0.1v-3.2c0,0,0-1.3,1.7-1.3c1.7,0,2.2,0,2.2,0l0.1-3.8l0,0c-0.5,0-0.9,0-1.3,0c-0.2,0-0.5,0-0.7,0
			c-0.6,0-1.2-0.1-1.7,0c-0.6,0.1-1.1,0.2-1.6,0.4c-0.3,0.1-0.6,0.2-0.9,0.4c-0.2,0.2-0.5,0.4-0.7,0.6c-0.2,0.2-0.4,0.4-0.6,0.7
			c-0.1,0.3-0.3,0.6-0.4,0.9c-0.1,0.4-0.2,0.7-0.3,1.1c0,0.5-0.1,0.9-0.1,1.3v3H9.8l-0.1,4.1h3.6L13.2,27.2"/>
	</g>
</g>
</svg>
