<?xml version="1.0" encoding="UTF-8"?>
<svg width="12px" height="12px" viewBox="0 0 12 12" version="1.1" xmlns="http://www.w3.org/2000/svg" xmlns:xlink="http://www.w3.org/1999/xlink">
    <g id="Symbols" stroke="none" stroke-width="1" fill="none" fill-rule="evenodd">
        <g id="player-actions/fullscreen-normal" transform="translate(-14.000000, -15.000000)" fill="#FFFFFF" fill-rule="nonzero">
            <g transform="translate(0.000000, 1.000000)" id="Group">
                <g transform="translate(14.000000, 14.000000)">
                    <path d="M4.50000001,3.77043638 L4.50000001,1.97536947 C4.50000001,1.6992271 4.72385764,1.47536947 5.00000001,1.47536947 C5.27614239,1.47536947 5.50000001,1.6992271 5.50000001,1.97536947 L5.50000001,4.97536947 C5.50000001,5.25151185 5.27614239,5.47536947 5.00000001,5.47536947 L2.00000001,5.47536947 C1.72385764,5.47536947 1.50000001,5.25151185 1.50000001,4.97536947 C1.50000001,4.6992271 1.72385764,4.47536947 2.00000001,4.47536947 L3.79069931,4.47536947 L0.147540193,0.854643602 C-0.0483240516,0.659985418 -0.0493017569,0.343404438 0.145356427,0.147540193 C0.340014612,-0.0483240516 0.656595592,-0.0493017569 0.852459837,0.145356427 L4.50000001,3.77043638 Z" id="Combined-Shape"></path>
                    <path d="M10.5,9.77043638 L10.5,7.97536947 C10.5,7.6992271 10.7238576,7.47536947 11,7.47536947 C11.2761424,7.47536947 11.5,7.6992271 11.5,7.97536947 L11.5,10.9753695 C11.5,11.2515118 11.2761424,11.4753695 11,11.4753695 L8.00000001,11.4753695 C7.72385764,11.4753695 7.50000001,11.2515118 7.50000001,10.9753695 C7.50000001,10.6992271 7.72385764,10.4753695 8.00000001,10.4753695 L9.79069931,10.4753695 L6.14754019,6.8546436 C5.95167595,6.65998542 5.95069824,6.34340444 6.14535643,6.14754019 C6.34001461,5.95167595 6.65659559,5.95069824 6.85245984,6.14535643 L10.5,9.77043638 Z" id="Combined-Shape-Copy" transform="translate(8.750000, 8.737685) scale(-1, -1) translate(-8.750000, -8.737685) "></path>
                </g>
            </g>
        </g>
    </g>
</svg>
