<?xml version="1.0" encoding="UTF-8"?>
<svg width="26px" height="26px" viewBox="0 0 26 26" version="1.1" xmlns="http://www.w3.org/2000/svg" xmlns:xlink="http://www.w3.org/1999/xlink">
    <g id="Symbols" stroke="none" stroke-width="1" fill="none" fill-rule="evenodd" opacity="0.6" stroke-linecap="round" stroke-linejoin="round">
        <g id="Footer-MCGOLIVE" transform="translate(-866.000000, -28.000000)" stroke="#FFFFFF" stroke-width="1.20000005">
            <g id="Section-7---Footer">
                <g id="Group-2" transform="translate(301.000000, 26.000000)">
                    <g id="sm" transform="translate(528.000000, 3.000000)">
                        <g id="icons/sm/instagram-footer" transform="translate(38.400000, 0.000000)">
                            <path d="M24,18.24 C24,21.42048 21.42048,24 18.24,24 L5.76,24 C2.57952,24 0,21.42048 0,18.24 L0,5.76 C0,2.57952 2.57952,0 5.76,0 L18.24,0 C21.42048,0 24,2.57952 24,5.76 L24,18.24 Z" id="Stroke-38"></path>
                            <path d="M18,12 C18,15.3138462 15.3138462,18 12,18 C8.68615385,18 6,15.3138462 6,12 C6,8.68615385 8.68615385,6 12,6 C15.3138462,6 18,8.68615385 18,12 Z" id="Stroke-40"></path>
                            <path d="M19.2,3 C19.2,3.3312 18.9312,3.6 18.6,3.6 C18.2688,3.6 18,3.3312 18,3 C18,2.6688 18.2688,2.4 18.6,2.4 C18.9312,2.4 19.2,2.6688 19.2,3 Z" id="Stroke-42"></path>
                        </g>
                    </g>
                </g>
            </g>
        </g>
    </g>
</svg>
