<?xml version="1.0" encoding="UTF-8" standalone="no"?>
<svg width="13px" height="10px" viewBox="0 0 13 10" version="1.1" xmlns="http://www.w3.org/2000/svg" xmlns:xlink="http://www.w3.org/1999/xlink">
    <!-- Generator: Sketch 50 (54983) - http://www.bohemiancoding.com/sketch -->
    <title>Group 2</title>
    <desc>Created with Sketch.</desc>
    <defs></defs>
    <g id="Designs---Desktop" stroke="none" stroke-width="1" fill="none" fill-rule="evenodd">
        <g id="003---MCGL---En-Vivo---Reproductor---v3.2-Open-SEÑALES" transform="translate(-118.000000, -530.000000)" fill="#FFFFFF">
            <g id="Group-2" transform="translate(125.500000, 535.000000) scale(-1, 1) translate(-125.500000, -535.000000) translate(118.000000, 530.000000)">
                <g id="Group" transform="translate(4.241995, 4.351458) rotate(-136.000000) translate(-4.241995, -4.351458) translate(1.241995, 1.351458)">
                    <path d="M2.73459,5.99802564 C2.47128,5.99802564 2.25789,5.77507977 2.25789,5.50004843 C2.25789,5.00310541 2.07261,4.53593447 1.73619,4.18449858 C1.39977,3.83318803 0.95259,3.63963818 0.47688,3.63963818 C0.21342,3.63966952 0,3.41672365 0,3.14169231 C0,2.86662963 0.21342,2.6437151 0.4767,2.6437151 C1.20699,2.6437151 1.89369,2.94080912 2.4102,3.48021652 C2.9268,4.01981197 3.2112,4.73716239 3.2112,5.50017379 C3.2112,5.77514245 2.99775,5.99808832 2.73459,5.99808832 L2.73459,5.99802564 Z" id="Shape"></path>
                    <path d="M4.99215,5.99802564 C4.72884,5.99802564 4.51545,5.77507977 4.51545,5.50004843 C4.51545,4.37309687 4.09533,3.31361823 3.33255,2.51676068 C2.56971,1.71990313 1.55547,1.28106268 0.47673,1.28106268 C0.21348,1.28106268 3e-05,1.05811681 3e-05,0.78308547 C3e-05,0.507991453 0.21348,0.285045584 0.47673,0.285045584 C1.81023,0.285045584 3.06384,0.827524217 4.00692,1.81250997 C4.94982,2.79749573 5.46912,4.10709117 5.46912,5.50007977 C5.46894,5.77514245 5.25552,5.99805698 4.99221,5.99805698 L4.99215,5.99802564 Z" id="Shape"></path>
                </g>
                <path d="M7.55011773,0.500771188 C7.55011773,0.112276037 7.97380561,-0.127802548 8.30707352,0.071849607 L12.8720431,2.8066044 C13.0228114,2.89692582 13.1150873,3.05977315 13.1150873,3.23552599 L13.1150873,5.8471212 C13.1150873,6.02216348 13.0235502,6.18446055 12.8737513,6.27501482 L8.30878171,9.03456333 C7.97555023,9.23600354 7.55011773,8.99605561 7.55011773,8.60666971 L7.55011773,0.500771188 Z M8.55011773,1.38316534 L8.55011773,7.72015967 L12.1150873,5.5651165 L12.1150873,3.51884609 L8.55011773,1.38316534 Z" id="Path-2" fill-rule="nonzero"></path>
                <path d="M13.4766328,3.68360581 C13.4766328,3.40746343 13.7004905,3.18360581 13.9766328,3.18360581 C14.2527752,3.18360581 14.4766328,3.40746343 14.4766328,3.68360581 L14.4766328,5.68360581 C14.4766328,5.95974818 14.2527752,6.18360581 13.9766328,6.18360581 C13.7004905,6.18360581 13.4766328,5.95974818 13.4766328,5.68360581 L13.4766328,3.68360581 Z" id="Line" fill-rule="nonzero"></path>
            </g>
        </g>
    </g>
</svg>