<?xml version="1.0" encoding="UTF-8"?>
<svg width="7px" height="11px" viewBox="0 0 7 11" version="1.1" xmlns="http://www.w3.org/2000/svg" xmlns:xlink="http://www.w3.org/1999/xlink">
    <g id="Symbols" stroke="none" stroke-width="1" fill="none" fill-rule="evenodd">
        <g id="player-cta/alquilar-hover" transform="translate(-22.000000, -15.000000)" fill="#42BFFE">
            <g id="icon/player-ctas/comprar">
                <path d="M28.402,21.765 C28.402,22.3663363 28.1820022,22.8814979 27.742,23.3105 C27.3019978,23.7395021 26.6676708,24.0053328 25.839,24.108 L25.839,25.34 L24.739,25.34 L24.739,24.141 C24.1963306,24.1116665 23.6793358,24.0163341 23.188,23.855 C22.6966642,23.6936659 22.3006682,23.4956678 22,23.261 L22.605,21.919 C22.8836681,22.1243344 23.2099981,22.296666 23.584,22.436 C23.9580019,22.575334 24.342998,22.6633331 24.739,22.7 L24.739,20.863 C24.2183307,20.7383327 23.7783351,20.5990008 23.419,20.445 C23.0596649,20.2909992 22.7590012,20.0655015 22.517,19.7685 C22.2749988,19.4714985 22.154,19.0773358 22.154,18.586 C22.154,17.9773303 22.3758311,17.4548355 22.8195,17.0185 C23.2631689,16.5821645 23.9029958,16.3163338 24.739,16.221 L24.739,15 L25.839,15 L25.839,16.199 C26.7410045,16.2723337 27.4853304,16.4959981 28.072,16.87 L27.522,18.223 C26.9719973,17.9076651 26.4110029,17.7170003 25.839,17.651 L25.839,19.521 C26.3523359,19.6383339 26.7868316,19.7721659 27.1425,19.9225 C27.4981684,20.0728341 27.7969988,20.2964985 28.039,20.5935 C28.2810012,20.8905015 28.402,21.2809976 28.402,21.765 Z M23.925,18.498 C23.925,18.6813342 23.994666,18.8316661 24.134,18.949 C24.273334,19.0663339 24.4749987,19.1653329 24.739,19.246 L24.739,17.684 C24.4603319,17.7500003 24.2550007,17.8544993 24.123,17.9975 C23.9909993,18.1405007 23.925,18.3073324 23.925,18.498 Z M25.839,22.656 C26.1030013,22.597333 26.3009993,22.5020007 26.433,22.37 C26.5650007,22.2379993 26.631,22.0803342 26.631,21.897 C26.631,21.7136658 26.5631673,21.5633339 26.4275,21.446 C26.2918327,21.3286661 26.0956679,21.2260004 25.839,21.138 L25.839,22.656 Z"></path>
            </g>
        </g>
    </g>
</svg>
