<?xml version="1.0" encoding="utf-8"?>
<!-- Generator: Adobe Illustrator 21.1.0, SVG Export Plug-In . SVG Version: 6.00 Build 0)  -->
<svg version="1.1" id="Capa_1" xmlns="http://www.w3.org/2000/svg" xmlns:xlink="http://www.w3.org/1999/xlink" x="0px" y="0px"
	 viewBox="0 0 166.2 285" enable-background="new 0 0 166.2 285" xml:space="preserve">
<g>
	<path d="M23.7,285c2.5,0,4.7-0.9,6.6-2.8l133-133.1c1.9-1.9,2.9-4.1,2.9-6.6s-1-4.7-2.9-6.6l-133-133C28.4,1,26.2,0,23.7,0
		c-2.5,0-4.7,0.9-6.6,2.9L2.9,17.1C1,19,0,21.2,0,23.7s1,4.7,2.9,6.6l112.2,112.2L2.9,254.6C1,256.5,0,258.7,0,261.2s1,4.7,2.9,6.6
		l14.2,14.3C19,284,21.2,284.9,23.7,285z"/>
</g>
</svg>
