<?xml version="1.0" encoding="utf-8"?>
<!-- Generator: Adobe Illustrator 21.1.0, SVG Export Plug-In . SVG Version: 6.00 Build 0)  -->
<svg version="1.1" id="Capa_1" xmlns="http://www.w3.org/2000/svg" xmlns:xlink="http://www.w3.org/1999/xlink" x="0px" y="0px"
	 viewBox="0 0 166.2 285" enable-background="new 0 0 166.2 285" xml:space="preserve">
<g>
	<path d="M149.1,282.1l14.2-14.3c1.9-1.9,2.9-4.1,2.9-6.6s-1-4.7-2.9-6.6L51.1,142.5L163.3,30.3c1.9-1.9,2.9-4.1,2.9-6.6
		s-1-4.7-2.9-6.6L149.1,2.9c-1.9-2-4.1-2.9-6.6-2.9s-4.7,1-6.6,2.9l-133,133C1,137.8,0,140,0,142.5c0,2.5,1,4.7,2.9,6.6l133,133.1
		c1.9,1.9,4.1,2.8,6.6,2.8C145,284.9,147.2,284,149.1,282.1z"/>
</g>
</svg>
