<?xml version="1.0" encoding="UTF-8"?>
<svg width="13px" height="13px" viewBox="0 0 13 13" version="1.1" xmlns="http://www.w3.org/2000/svg" xmlns:xlink="http://www.w3.org/1999/xlink">
    <g id="Page-1" stroke="none" stroke-width="1" fill="none" fill-rule="evenodd">
        <g id="record" fill="#42BFFE" fill-rule="nonzero">
            <path d="M6.4,0.8 C3.70340154,0.8 1.36138449,2.75168088 0.893312802,5.3728357 C-0.0363416911,10.39297 6.12248231,13.9605814 10.040295,10.6957742 C13.8844982,7.41413735 11.4929457,0.8 6.4,0.8 Z M6.4,3.33066907e-16 C12.2398226,3.33066907e-16 14.9668759,7.54200669 10.5560738,11.3072885 C6.06111481,15.0530876 -0.95978313,10.9861041 0.10622897,5.22968374 C0.642112013,2.2287387 3.31659846,3.33066907e-16 6.4,3.33066907e-16 Z" id="Oval_1_"></path>
            <path d="M6.4,2.8 C8.4,2.8 10,4.4 10,6.4 C10,8.4 8.4,10 6.4,10 C4.4,10 2.8,8.4 2.8,6.4 C2.8,4.4 4.4,2.8 6.4,2.8 Z" id="Oval-Copy_1_"></path>
        </g>
    </g>
</svg>
