<?xml version="1.0" encoding="UTF-8"?>
<svg width="50px" height="50px" viewBox="0 0 50 50" version="1.1" xmlns="http://www.w3.org/2000/svg" xmlns:xlink="http://www.w3.org/1999/xlink">
    <!-- Generator: Sketch 49.1 (51147) - http://www.bohemiancoding.com/sketch -->
    <title>empty-state</title>
    <desc>Created with Sketch.</desc>
    <defs></defs>
    <g id="Page-1" stroke="none" stroke-width="1" fill="none" fill-rule="evenodd">
        <g id="empty-state" transform="translate(1.000000, 1.000000)" fill="#FFFFFF" fill-rule="nonzero">
            <path d="M24,48.75 C10.3309524,48.75 -0.75,37.6690476 -0.75,24 C-0.75,10.3309524 10.3309524,-0.75 24,-0.75 C37.6690476,-0.75 48.75,10.3309524 48.75,24 C48.75,37.6690476 37.6690476,48.75 24,48.75 Z M24,47.25 C36.8406204,47.25 47.25,36.8406204 47.25,24 C47.25,11.1593796 36.8406204,0.75 24,0.75 C11.1593796,0.75 0.75,11.1593796 0.75,24 C0.75,36.8406204 11.1593796,47.25 24,47.25 Z" id="Oval-2"></path>
            <path d="M28.5023347,21.4540231 C28.3736049,21.8477254 27.9500899,22.0625279 27.5563876,21.933798 C27.1626853,21.8050682 26.9478828,21.3815532 27.0766127,20.9878509 C27.8515005,18.6179655 29.3875686,17.3548593 31.5789474,17.3548593 C33.770326,17.3548593 35.3063942,18.6179655 36.0812821,20.9878509 C36.210012,21.3815532 35.9952095,21.8050681 35.6015072,21.933798 C35.2078049,22.0625279 34.78429,21.8477254 34.6555601,21.4540231 C34.0719514,19.6691382 33.0817037,18.8548593 31.5789474,18.8548593 C30.076191,18.8548593 29.0859434,19.6691382 28.5023347,21.4540231 Z" id="Line-6-Copy"></path>
            <path d="M13.3429989,21.4583852 C13.2118599,21.8512916 12.7870371,22.063496 12.3941307,21.932357 C12.0012243,21.801218 11.7890199,21.3763952 11.9201589,20.9834888 C12.6968605,18.6564084 14.2338296,17.4182869 16.4210526,17.4182869 C18.6082757,17.4182869 20.1452448,18.6564084 20.9219463,20.9834889 C21.0530853,21.3763953 20.8408808,21.801218 20.4479744,21.932357 C20.055068,22.063496 19.6302453,21.8512915 19.4991063,21.4583851 C18.9173114,19.7152654 17.9279648,18.9182869 16.4210526,18.9182869 C14.9141405,18.9182869 13.9247939,19.7152654 13.3429989,21.4583852 Z" id="Line-6-Copy-2"></path>
            <path d="M20.8343145,31.7425993 C20.6043436,32.087108 20.1386358,32.1799592 19.7941271,31.9499883 C19.4496184,31.7200174 19.3567672,31.2543096 19.5867381,30.9098009 C20.4249833,29.654065 21.9250319,29.0498751 24,29.0498751 C26.0749681,29.0498751 27.5750167,29.654065 28.4132619,30.9098009 C28.6432328,31.2543096 28.5503816,31.7200174 28.2058729,31.9499883 C27.8613642,32.1799592 27.3956564,32.087108 27.1656855,31.7425993 C26.6454343,30.9632352 25.6191671,30.5498751 24,30.5498751 C22.3808329,30.5498751 21.3545657,30.9632352 20.8343145,31.7425993 Z" id="Line-6-Copy-3"></path>
        </g>
    </g>
</svg>