<?xml version="1.0" encoding="utf-8"?>
<!-- Generator: Adobe Illustrator 21.1.0, SVG Export Plug-In . SVG Version: 6.00 Build 0)  -->
<svg version="1.1" id="Layer_1" xmlns="http://www.w3.org/2000/svg" xmlns:xlink="http://www.w3.org/1999/xlink" x="0px" y="0px"
	 viewBox="0 0 60 60" style="enable-background:new 0 0 60 60;" xml:space="preserve">
<path style="fill:#231F20;" d="M44.5,23.5c0-11.6-9.4-20.9-20.9-20.9C12,2.6,2.7,12,2.7,23.5c0,11.6,9.4,20.9,20.9,20.9
	C35.1,44.5,44.5,35.1,44.5,23.5z M60,58.2L58.2,60l-19-19c-4.2,3.7-9.6,6-15.7,6C10.5,47,0,36.5,0,23.5S10.5,0,23.5,0
	S47,10.5,47,23.5c0,6-2.3,11.5-6,15.7L60,58.2z"/>
</svg>
