<?xml version="1.0" encoding="UTF-8"?>
<svg width="12px" height="10px" viewBox="0 0 12 10" version="1.1" xmlns="http://www.w3.org/2000/svg" xmlns:xlink="http://www.w3.org/1999/xlink">
    <g id="Symbols" stroke="none" stroke-width="1" fill="none" fill-rule="evenodd">
        <g id="player-cta/startover-normal" transform="translate(-19.000000, -15.000000)" fill="#FFFFFF" fill-rule="nonzero">
            <path d="M23.0414792,20.5 C23.2795183,21.9188567 24.5135019,23 26,23 C27.6568542,23 29,21.6568542 29,20 C29,18.3431458 27.6568542,17 26,17 C25.4477153,17 25,16.5522847 25,16 C25,15.4477153 25.4477153,15 26,15 C28.7614237,15 31,17.2385763 31,20 C31,22.7614237 28.7614237,25 26,25 C23.4073259,25 21.2755498,23.0266613 21.0246876,20.5 L20,20.5 C19.6006523,20.5 19.3624566,20.0549273 19.5839749,19.7226499 L21.5839749,16.7226499 C21.7818859,16.4257834 22.2181141,16.4257834 22.4160251,16.7226499 L24.4160251,19.7226499 C24.6375434,20.0549273 24.3993477,20.5 24,20.5 L23.0414792,20.5 Z" id="icon/player-ctas/startover"></path>
        </g>
    </g>
</svg>
