<?xml version="1.0" encoding="UTF-8"?>
<svg width="15px" height="12px" viewBox="0 0 15 12" version="1.1" xmlns="http://www.w3.org/2000/svg" xmlns:xlink="http://www.w3.org/1999/xlink">
    <g id="Symbols" stroke="none" stroke-width="1" fill="none" fill-rule="evenodd">
        <g id="player-actions/subtitles-normal" transform="translate(-13.000000, -15.000000)" fill="#FFFFFF">
            <g transform="translate(0.000000, 0.975369)" id="icon/subtitles">
                <g transform="translate(13.000000, 14.000000)">
                    <g id="Group" transform="translate(4.765362, 7.192483) rotate(-136.000000) translate(-4.765362, -7.192483) translate(1.765362, 4.192483)">
                        <path d="M2.73459,5.99802564 C2.47128,5.99802564 2.25789,5.77507977 2.25789,5.50004843 C2.25789,5.00310541 2.07261,4.53593447 1.73619,4.18449858 C1.39977,3.83318803 0.95259,3.63963818 0.47688,3.63963818 C0.21342,3.63966952 0,3.41672365 0,3.14169231 C0,2.86662963 0.21342,2.6437151 0.4767,2.6437151 C1.20699,2.6437151 1.89369,2.94080912 2.4102,3.48021652 C2.9268,4.01981197 3.2112,4.73716239 3.2112,5.50017379 C3.2112,5.77514245 2.99775,5.99808832 2.73459,5.99808832 L2.73459,5.99802564 Z" id="Shape"></path>
                        <path d="M4.99215,5.99802564 C4.72884,5.99802564 4.51545,5.77507977 4.51545,5.50004843 C4.51545,4.37309687 4.09533,3.31361823 3.33255,2.51676068 C2.56971,1.71990313 1.55547,1.28106268 0.47673,1.28106268 C0.21348,1.28106268 3e-05,1.05811681 3e-05,0.78308547 C3e-05,0.507991453 0.21348,0.285045584 0.47673,0.285045584 C1.81023,0.285045584 3.06384,0.827524217 4.00692,1.81250997 C4.94982,2.79749573 5.46912,4.10709117 5.46912,5.50007977 C5.46894,5.77514245 5.25552,5.99805698 4.99221,5.99805698 L4.99215,5.99802564 Z" id="Shape"></path>
                    </g>
                    <path d="M9.25386,8.7317094 C9.02094,8.7317094 8.83212,8.53452422 8.83212,8.29120798 C8.83212,8.0478604 9.02094,7.85064387 9.25386,7.85064387 L10.15652,7.85064387 L10.15652,0.904757835 L0.84348,0.904757835 L0.84348,2.32773504 C0.84348,2.57105128 0.65466,2.76829915 0.42174,2.76829915 C0.18879,2.76829915 0,2.57108262 0,2.32773504 L0,0.464131054 C0,0.220877493 0.18879,0.0236609687 0.42174,0.0236609687 L10.57826,0.0236609687 C10.81121,0.0236609687 11,0.220846154 11,0.464131054 L11,8.29139601 C11,8.53458689 10.81121,8.73180342 10.57826,8.73180342 L9.25386,8.7317094 Z" id="Shape" transform="translate(5.500000, 4.377732) scale(-1, 1) translate(-5.500000, -4.377732) "></path>
                    <path d="M8.07348489,3.34179592 C8.07348489,2.95330077 8.49717277,2.71322218 8.83044068,2.91287434 L13.3954103,5.64762914 C13.5461786,5.73795055 13.6384545,5.90079789 13.6384545,6.07655072 L13.6384545,8.68814593 C13.6384545,8.86318822 13.5469174,9.02548528 13.3971184,9.11603955 L8.83214887,11.8755881 C8.4989174,12.0770283 8.07348489,11.8370803 8.07348489,11.4476944 L8.07348489,3.34179592 Z M9.07348489,4.22419007 L9.07348489,10.5611844 L12.6384545,8.40614123 L12.6384545,6.35987082 L9.07348489,4.22419007 Z" id="Path-2" fill-rule="nonzero"></path>
                    <path d="M14,6.52463054 C14,6.24848817 14.2238576,6.02463054 14.5,6.02463054 C14.7761424,6.02463054 15,6.24848817 15,6.52463054 L15,8.52463054 C15,8.80077292 14.7761424,9.02463054 14.5,9.02463054 C14.2238576,9.02463054 14,8.80077292 14,8.52463054 L14,6.52463054 Z" id="Line" fill-rule="nonzero"></path>
                </g>
            </g>
        </g>
    </g>
</svg>
