<?xml version="1.0" encoding="UTF-8"?>
<svg width="13px" height="16px" viewBox="0 0 13 16" version="1.1" xmlns="http://www.w3.org/2000/svg" xmlns:xlink="http://www.w3.org/1999/xlink">
    <g id="Page-1" stroke="none" stroke-width="1" fill="none" fill-rule="evenodd">
        <g id="timer" fill="#FFFFFF" fill-rule="nonzero">
            <path d="M6.5,16 C2.91014913,16 0,13.0898509 0,9.5 C0,5.91014913 2.91014913,3 6.5,3 C10.0898509,3 13,5.91014913 13,9.5 C13,13.0898509 10.0898509,16 6.5,16 Z M8.56620518,12.3850308 L7,10.8188256 L7,6.5 C7,6.22385763 6.77614237,6 6.5,6 C6.22385763,6 6,6.22385763 6,6.5 L6,11.0259324 C6,11.1585406 6.05267842,11.2857176 6.14644661,11.3794858 L7.8590984,13.0921375 C8.05436054,13.2873997 8.37094303,13.2873997 8.56620518,13.0921375 C8.76146732,12.8968754 8.76146732,12.5802929 8.56620518,12.3850308 Z" id="Combined-Shape"></path>
            <path d="M4.5,1 C4.22385763,1 4,0.776142375 4,0.5 C4,0.223857625 4.22385763,0 4.5,0 L8.5,0 C8.77614237,0 9,0.223857625 9,0.5 C9,0.776142375 8.77614237,1 8.5,1 L4.5,1 Z" id="Line"></path>
        </g>
    </g>
</svg>
