<?xml version="1.0" encoding="UTF-8"?>
<svg width="27px" height="27px" viewBox="0 0 27 27" version="1.1" xmlns="http://www.w3.org/2000/svg" xmlns:xlink="http://www.w3.org/1999/xlink">
    <!-- Generator: Sketch 49.1 (51147) - http://www.bohemiancoding.com/sketch -->
    <title>avatar</title>
    <desc>Created with Sketch.</desc>
    <defs></defs>
    <g id="Designs" stroke="none" stroke-width="1" fill="none" fill-rule="evenodd">
        <g id="022---MCGL---Ajustes---Gestionar-Perfiles-1" transform="translate(-79.000000, -415.000000)" fill="#FFFFFF">
            <g id="Cuenta">
                <g id="Section-2---On-Demand" transform="translate(0.000000, 65.000000)">
                    <g id="Cuenta" transform="translate(40.000000, 146.000000)">
                        <g id="Datos-Cliente" transform="translate(0.000000, 92.000000)">
                            <g id="Datos-cliente---fields" transform="translate(0.000000, 35.000000)">
                                <g id="row/table-perfiles-nobg" transform="translate(0.000000, 60.000000)">
                                    <g id="avatar" transform="translate(40.000000, 18.000000)">
                                        <path d="M12.5,25.5 C5.32029825,25.5 -0.5,19.6797017 -0.5,12.5 C-0.5,5.32029825 5.32029825,-0.5 12.5,-0.5 C19.6797017,-0.5 25.5,5.32029825 25.5,12.5 C25.5,19.6797017 19.6797017,25.5 12.5,25.5 Z M12.5,24.5 C19.127417,24.5 24.5,19.127417 24.5,12.5 C24.5,5.872583 19.127417,0.5 12.5,0.5 C5.872583,0.5 0.5,5.872583 0.5,12.5 C0.5,19.127417 5.872583,24.5 12.5,24.5 Z" id="Oval-2" fill-rule="nonzero"></path>
                                        <path d="M8.16715243,14.3079749 C7.99706261,14.0904339 8.03552936,13.7761971 8.25307031,13.6061073 C8.47061126,13.4360174 8.78484809,13.4744842 8.9549379,13.6920251 L9.31757059,14.155824 C9.9809086,15.004218 10.9978844,15.5 12.0748197,15.5 L13,15.5 C13.2761424,15.5 13.5,15.7238576 13.5,16 C13.5,16.2761424 13.2761424,16.5 13,16.5 L12.0748197,16.5 C10.6901886,16.5 9.38264828,15.862566 8.52978511,14.7717737 L8.16715243,14.3079749 Z" id="Line-6-Copy-3" fill-rule="nonzero"></path>
                                        <path d="M10.0129871,10.5966966 C9.79850407,10.7706266 9.48363311,10.7377517 9.30970318,10.5232687 C9.13577326,10.3087856 9.16864808,9.99391462 9.38313116,9.81998469 C9.82614503,9.46073319 10.3724782,9.28222894 11.002224,9.28222894 C11.2783663,9.28222894 11.502224,9.50608657 11.502224,9.78222894 C11.502224,10.0583713 11.2783663,10.2822289 11.002224,10.2822289 C10.5937008,10.2822289 10.2705907,10.3877992 10.0129871,10.5966966 Z" id="Line-6-Copy-2" fill-rule="nonzero"></path>
                                        <circle id="Oval-Copy" cx="14" cy="10" r="1"></circle>
                                    </g>
                                </g>
                            </g>
                        </g>
                    </g>
                </g>
            </g>
        </g>
    </g>
</svg>