<?xml version="1.0" encoding="UTF-8"?>
<svg width="29px" height="22px" viewBox="0 0 29 22" version="1.1" xmlns="http://www.w3.org/2000/svg" xmlns:xlink="http://www.w3.org/1999/xlink">
    <g id="Symbols" stroke="none" stroke-width="1" fill="none" fill-rule="evenodd" opacity="0.6" stroke-linecap="round" stroke-linejoin="round">
        <g id="Footer-MCGOLIVE" transform="translate(-902.000000, -30.000000)" stroke="#FFFFFF" stroke-width="0.960000038">
            <g id="Section-7---Footer">
                <g id="Group-2" transform="translate(301.000000, 26.000000)">
                    <g id="sm" transform="translate(528.000000, 3.000000)">
                        <g id="icons/sm/youtube-footer" transform="translate(73.200000, 1.200000)">
                            <polygon id="Stroke-100" points="11.04 5.4 11.04 16.2 19.68 10.8"></polygon>
                            <path d="M28.32,16.5274364 C28.32,18.5706 26.7888,20.2711091 24.79872,20.4409636 C21.4368,20.7286364 18.67968,21.1095818 14.4,21.1095818 C10.27968,21.1095818 7.3632,20.7286364 4.00128,20.4409636 C2.0112,20.2711091 0.48,18.5706 0.48,16.5274364 L0.48,5.07256364 C0.48,3.0294 2.0112,1.32889091 4.00128,1.15903636 C7.3632,0.871363636 10.44,0.4914 14.4,0.4914 C18.55968,0.4914 21.4368,0.871363636 24.79872,1.15903636 C26.7888,1.32889091 28.32,3.0294 28.32,5.07256364 L28.32,16.5274364 Z" id="Stroke-101"></path>
                        </g>
                    </g>
                </g>
            </g>
        </g>
    </g>
</svg>
