<?xml version="1.0" encoding="UTF-8"?>
<svg width="77px" height="22px" viewBox="0 0 77 22" version="1.1" xmlns="http://www.w3.org/2000/svg" xmlns:xlink="http://www.w3.org/1999/xlink">
    <!-- Generator: Sketch 49.1 (51147) - http://www.bohemiancoding.com/sketch -->
    <title>by-iugo-negativo</title>
    <desc>Created with Sketch.</desc>
    <defs></defs>
    <g id="Symbols" stroke="none" stroke-width="1" fill="none" fill-rule="evenodd" opacity="0.2">
        <g id="Footer-MCGOLIVE" transform="translate(-1154.000000, -30.000000)" fill="#FFFFFF">
            <g id="Section-7---Footer">
                <g id="by-iugo-negativo" transform="translate(1154.000000, 30.000000)">
                    <g id="Group-17" transform="translate(0.000000, 0.087596)">
                        <path d="M62.9984184,8.26013861 C63.6574535,7.60511121 64.5248132,7.24428621 65.4409009,7.24428621 C66.3629711,7.24428621 67.2346728,7.60511121 67.8954447,8.26023351 C68.5541904,8.91317302 68.9169009,9.77129497 68.9169009,10.6765842 C68.9169009,12.5542598 67.3576026,14.0818346 65.4409009,14.0818346 C63.5318219,14.0818346 61.9786991,12.5542598 61.9786991,10.6765842 C61.9786991,9.7719593 62.3408307,8.91383735 62.9984184,8.26013861 M65.4409009,15.6055183 C66.0313307,15.6055183 66.6300588,15.5075774 67.2205851,15.3143528 C68.5890237,14.8666906 69.6856465,13.8008238 70.1541114,12.4632469 C70.7269798,10.8274816 70.5000325,9.12319557 69.5314535,7.78742179 C68.5929798,6.49321596 67.0638833,5.72060251 65.4409009,5.72060251 C64.8433307,5.72060251 64.2384272,5.82224469 63.6430763,6.02239723 C62.2855412,6.47907527 61.19905,7.55224968 60.736857,8.89324318 C60.1702605,10.5366957 60.3988482,12.238704 61.363857,13.5627097 C62.2961553,14.8419207 63.8203307,15.6055183 65.4409009,15.6055183" id="Fill-2"></path>
                        <path d="M39.2460798,15.6055657 C41.4308342,15.6055657 43.0783254,13.9967531 43.0783254,11.8633113 L43.0783254,5.89764592 L41.46065,5.89764592 L41.46065,11.7959294 C41.46065,13.1418579 40.5499658,14.081882 39.2460798,14.081882 C37.9584044,14.081882 37.0590096,13.1307542 37.0590096,11.7689767 L37.0590096,5.89764592 L35.4413342,5.89764592 L35.4413342,11.8633113 C35.4413342,13.9967531 37.0770535,15.6055657 39.2460798,15.6055657" id="Fill-4"></path>
                        <path d="M52.6588719,15.6055657 C54.6500649,15.6055657 56.0929947,14.7107159 56.1073719,14.7017 L56.1101702,14.6999918 L56.1126789,14.6979988 C56.1901614,14.6408666 56.2579947,14.5073367 56.2579947,14.4121479 C56.2579947,13.8726187 56.2545211,13.3172405 56.2511439,12.7801788 C56.2472842,12.1580831 56.2432316,11.5147289 56.2445825,10.8925383 L56.2447754,10.804847 L53.0634596,10.804847 L53.0634596,12.2597253 L53.3804333,12.2597253 C53.3910474,12.2604845 53.4019509,12.2610539 53.4129509,12.2610539 L54.6677228,12.2610539 L54.6677228,13.6266276 C54.6642491,13.6282409 54.6605825,13.6297594 54.6569158,13.6314677 C54.4203193,13.7361468 53.7006877,14.0549293 52.7000737,14.0549293 C50.8513982,14.0549293 49.347486,12.5272596 49.347486,10.649584 C49.347486,8.76450591 50.8513982,7.23085729 52.7000737,7.23085729 C53.4808807,7.23085729 54.3091614,7.55723214 54.9713807,8.12542238 C54.9882667,8.1402274 55.0053456,8.15417829 55.0225211,8.16689543 L55.2442579,8.34806716 L55.4279772,8.15863878 C55.4366614,8.15038213 55.4453456,8.14155606 55.4523895,8.13377393 C55.5555386,8.02548847 55.6605211,7.91862657 55.7622228,7.81518121 C55.8011088,7.77560624 55.8400912,7.73593637 55.8790737,7.69607669 L55.8791702,7.69645631 L56.3396263,7.22288536 L55.9781702,6.93779374 C54.9742754,6.11877224 53.8885561,5.72064996 52.6588719,5.72064996 C51.3147491,5.72064996 50.0524509,6.23502964 49.1046175,7.16907479 C48.1561088,8.10378427 47.6337053,9.34949415 47.6337053,10.6766317 C47.6337053,12.0021558 48.1562053,13.2431205 49.1048105,14.1708071 C50.0510035,15.0960262 51.3132053,15.6055657 52.6588719,15.6055657" id="Fill-6"></path>
                        <polygon id="Fill-1" points="30.1423971 5.89764592 28.5383269 5.89764592 28.5383269 9.6972224 30.1423971 8.74637924"></polygon>
                        <polygon id="Fill-8" points="30.1423971 9.55677398 28.5383269 10.507712 28.5383269 15.3876756 30.1423971 15.3876756"></polygon>
                        <g id="Group-12" transform="translate(0.000000, 0.227312)">
                            <path d="M22.6787,1.76804251 L75.2461561,1.76804251 L75.2461561,18.9730935 L22.6787,18.9730935 L22.6787,1.76804251 Z M20.9253579,20.6890527 L-1.92982456e-05,20.6890527 L-1.92982456e-05,0.00728862708 L20.9253579,0.00728862708 L21.0276386,0.00728862708 L76.9747,0.00728862708 L76.9747,20.6890527 L21.0276386,20.6890527 L20.9253579,20.6890527 Z M8.37453158,10.7558023 L8.83006667,10.7558023 C9.29486491,10.7558023 9.49006667,10.9385874 9.49006667,11.5328762 L9.49006667,12.090627 C9.49006667,12.5660961 9.30412807,12.7214539 8.96013684,12.7214539 L8.37453158,12.7214539 L8.37453158,10.7558023 Z M8.37453158,8.14992832 L8.8671193,8.14992832 C9.22973333,8.14992832 9.38768947,8.3511248 9.38768947,8.80827736 L9.38768947,9.16483168 C9.38768947,9.67683875 9.1553386,9.84140228 8.77419825,9.84140228 L8.37453158,9.84140228 L8.37453158,8.14992832 Z M10.4103035,8.70767912 C10.4103035,7.72020301 9.95476842,7.2357181 8.89510175,7.2357181 L7.35191754,7.2357181 L7.35191754,13.6358539 L8.96013684,13.6358539 C9.98275088,13.6358539 10.5126807,13.1055304 10.5126807,12.1180543 L10.5126807,11.5969364 C10.5126807,10.9203658 10.2987596,10.4448968 9.75030351,10.2345895 L9.75030351,10.2162731 C10.2058386,10.0059658 10.4103035,9.59455698 10.4103035,8.93630285 L10.4103035,8.70767912 Z M13.1603711,11.5146167 L13.1603711,13.635816 L14.1829851,13.635816 L14.1829851,11.5146167 L15.4750991,7.23568014 L14.4989939,7.23568014 L13.7273535,10.1522698 L13.7088272,10.1522698 L12.9371868,7.23568014 L11.868257,7.23568014 L13.1603711,11.5146167 Z" id="Combined-Shape"></path>
                        </g>
                    </g>
                </g>
            </g>
        </g>
    </g>
</svg>