<?xml version="1.0" encoding="UTF-8"?>
<svg width="70px" height="55px" viewBox="0 0 70 55" version="1.1" xmlns="http://www.w3.org/2000/svg" xmlns:xlink="http://www.w3.org/1999/xlink">
    <!-- Generator: Sketch 49.1 (51147) - http://www.bohemiancoding.com/sketch -->
    <title>señal-title</title>
    <desc>Created with Sketch.</desc>
    <defs>
        <rect id="path-1" x="0" y="0" width="70" height="55" rx="4"></rect>
    </defs>
    <g id="Designs" stroke="none" stroke-width="1" fill="none" fill-rule="evenodd">
        <g id="002---MCGL---En-Vivo---Default" transform="translate(-450.000000, -795.000000)">
            <g id="Section-1---Puede-ver" transform="translate(0.000000, 679.000000)">
                <g id="On-Demand-Destacados---x4" transform="translate(40.000000, 116.000000)">
                    <g id="Películas">
                        <g id="Título-Película---x1">
                            <g id="Group" transform="translate(410.000000, 0.000000)">
                                <g id="señal-title">
                                    <g id="Rectangle" style="mix-blend-mode: overlay;">
                                        <use fill="#000204" fill-rule="evenodd" style="mix-blend-mode: multiply;" xlink:href="#path-1"></use>
                                        <rect stroke="#FFFFFF" stroke-width="1" x="0.5" y="0.5" width="69" height="54" rx="4"></rect>
                                    </g>
                                    <text id="131" font-family="Poppins-Light, Poppins" font-size="10" font-weight="300" fill="#FFFFFF" fill-opacity="0.6">
                                        <tspan x="27" y="47">131</tspan>
                                    </text>
                                    <g id="2292" transform="translate(12.000000, 15.000000)" fill-rule="nonzero">
                                        <path d="M32.1139831,4.40961538 L32.2524153,5.66076923 L31.3184746,5.66038462 L32.1139831,4.40961538 Z M44.6380932,0.205769231 L42.0910169,9.79384615 L0.36190678,9.79423077 L2.90898305,0.206538462 L44.6380932,0.205769231 Z M38.210339,4.93961538 L40.4145763,2.42230769 L38.4372458,2.42269231 L37.4007203,3.67384615 L36.8176271,2.42269231 L34.9711017,2.42230769 L36.1708475,4.86538462 L34.1862712,7.13423077 L33.4792373,2.43038462 L31.7863983,2.43 L28.4811864,7.24384615 L29.7652119,2.42269231 L27.8897034,2.42230769 L26.3135593,4.23307692 L25.7007203,2.42230769 L24.0151271,2.42269231 L22.6437712,7.57423077 L24.3141102,7.57423077 L24.9929237,5.02038462 L25.6786017,6.85307692 L25.7083475,6.85307692 L27.3710593,5.02038462 L26.6933898,7.57384615 L28.2550424,7.57423077 L28.3927119,7.57384615 L30.1149153,7.57423077 L30.5607203,6.88230769 L32.3488983,6.88230769 L32.4354661,7.57423077 L33.8014831,7.57423077 L34.2526271,7.57423077 L35.7788136,7.57423077 L36.9945763,6.11692308 L37.6177119,7.57461538 L39.4638559,7.57423077 L38.210339,4.93961538 Z M20.2869915,4.35846154 L20.4258051,3.83576923 L23.1040678,3.83576923 L23.4831356,2.42307692 L19.1269068,2.42269231 L17.7547881,7.57461538 L22.1087288,7.57461538 L22.4816949,6.16153846 L19.805339,6.16192308 L19.9586441,5.60269231 L22.4538559,5.60230769 L22.7825847,4.35884615 L20.2869915,4.35884615 L20.2869915,4.35846154 Z M12.1133898,7.57423077 L13.8062288,7.57423077 L14.4926695,5.01307692 L15.7038559,7.57423077 L17.2216525,7.57423077 L18.5933898,2.42269231 L16.9005508,2.42230769 L16.2434746,4.88076923 L15.0826271,2.42269231 L13.4847458,2.42307692 L12.1133898,7.57423077 Z M12.9603814,2.42269231 L11.2534322,2.42230769 L9.8809322,7.57423077 L11.5882627,7.57461538 L12.9603814,2.42269231 Z M5.19597458,6.67076923 C5.09110169,7.13269231 5.51898305,7.57615385 6.15737288,7.57692308 C6.15851695,7.57692308 6.15889831,7.57730769 6.16004237,7.57730769 L9.34398305,7.57730769 L9.73868644,6.13846154 L7.57487288,6.13884615 C7.28847458,6.13923077 7.04516949,6.01884615 7.14050847,5.65692308 L7.4890678,4.35115385 C7.59584746,3.93576923 7.96347458,3.86692308 8.33949153,3.86730769 L10.3438983,3.86846154 L10.7305932,2.42423077 L7.20495763,2.42538462 C6.71338983,2.42538462 6.30038136,2.68961538 6.13144068,3.13461538 L5.19597458,6.67076923 Z" id="Shape" fill="#070509"></path>
                                        <g id="Group" transform="translate(4.957627, 2.307692)" fill="#E4B135">
                                            <polygon id="Shape" points="6.29542373 0.114230769 4.92330508 5.26576923 6.63063559 5.26615385 8.00275424 0.114615385"></polygon>
                                            <polygon id="Shape" points="11.9429237 0.114230769 11.2862288 2.57269231 10.1253814 0.114230769 8.5275 0.114615385 7.15576271 5.26615385 8.84860169 5.26615385 9.53504237 2.705 10.7462288 5.26615385 12.2640254 5.26615385 13.6357627 0.114615385"></polygon>
                                            <path d="M2.1825,3.34846154 L2.53105932,2.04269231 C2.63783898,1.62730769 3.0054661,1.55846154 3.38148305,1.55884615 L5.38588983,1.56 L5.7729661,0.115769231 L2.24733051,0.116923077 C1.75576271,0.116923077 1.34275424,0.381153846 1.17381356,0.826153846 L0.237966102,4.36269231 C0.13309322,4.82461538 0.560974576,5.26807692 1.19936441,5.26884615 C1.20050847,5.26884615 1.20088983,5.26923077 1.2020339,5.26923077 L4.38597458,5.26923077 L4.78067797,3.83038462 L2.61686441,3.83076923 C2.3304661,3.83038462 2.08754237,3.71 2.1825,3.34846154 Z" id="Shape"></path>
                                            <polygon id="Shape" points="15.0010169 3.29384615 17.4962288 3.29346154 17.8245763 2.05 15.3293644 2.05 15.4677966 1.52730769 18.1460593 1.52730769 18.5251271 0.114615385 14.1692797 0.114230769 12.7967797 5.26615385 17.1507203 5.26615385 17.5240678 3.85269231 14.8477119 3.85307692"></polygon>
                                            <path d="M33.4792373,0.114615385 L32.4427119,1.36576923 L31.8596186,0.114615385 L30.0130932,0.114230769 L31.212839,2.55730769 L29.2282627,4.82615385 L28.5212288,0.122307692 L26.8283898,0.121923077 L23.523178,4.93576923 L24.8072034,0.114615385 L22.9316949,0.114230769 L21.3555508,1.925 L20.7427119,0.114230769 L19.0571186,0.114615385 L17.6857627,5.26615385 L19.3561017,5.26615385 L20.0349153,2.71230769 L20.7205932,4.545 L20.750339,4.545 L22.4130508,2.71230769 L21.7353814,5.26576923 L23.2970339,5.26615385 L23.4347034,5.26576923 L25.1569068,5.26615385 L25.6027119,4.57423077 L27.3908898,4.57423077 L27.4774576,5.26615385 L28.8434746,5.26615385 L29.2946186,5.26615385 L30.8208051,5.26615385 L32.0365678,3.80884615 L32.6597034,5.26653846 L34.5058475,5.26615385 L33.2527119,2.63115385 L35.4569492,0.113846154 L33.4792373,0.114615385 Z M26.3608475,3.35230769 L27.1563559,2.10153846 L27.2947881,3.35269231 L26.3608475,3.35230769 Z" id="Shape"></path>
                                        </g>
                                    </g>
                                </g>
                            </g>
                        </g>
                    </g>
                </g>
            </g>
        </g>
    </g>
</svg>