<?xml version="1.0" encoding="UTF-8"?>
<svg width="44px" height="11px" viewBox="0 0 44 11" version="1.1" xmlns="http://www.w3.org/2000/svg" xmlns:xlink="http://www.w3.org/1999/xlink">
    <!-- Generator: Sketch 49.1 (51147) - http://www.bohemiancoding.com/sketch -->
    <title>cinecanal</title>
    <desc>Created with Sketch.</desc>
    <defs></defs>
    <g id="Symbols" stroke="none" stroke-width="1" fill="none" fill-rule="evenodd">
        <g id="señal-grilla" transform="translate(-112.000000, -27.000000)" fill-rule="nonzero">
            <g id="Group">
                <g transform="translate(112.000000, 27.000000)">
                    <g id="cinecanal">
                        <rect id="Rectangle-path" fill="#C96044" x="0" y="0.0785714286" width="44" height="10.8428571"></rect>
                        <path d="M18.76,5.53928571 C18.76,3.53571429 18.76,1.61071429 20.68,1.61071429 C21.88,1.61071429 22.32,2.51428571 22.28,4.125 L21.16,4.125 C21.16,3.10357143 21.04,2.75 20.68,2.75 C20.04,2.75 19.96,3.575 19.96,5.53928571 C19.96,7.46428571 20.04,8.32857143 20.68,8.32857143 C21.2,8.32857143 21.2,7.38571429 21.2,6.79642857 L22.36,6.79642857 C22.36,8.83928571 21.76,9.46785714 20.68,9.46785714 C18.76,9.42857143 18.76,7.50357143 18.76,5.53928571" id="Shape" fill="#FFFFFF"></path>
                        <path d="M23.12,9.31071429 L24.64,1.72857143 L26.16,1.72857143 L27.68,9.31071429 L26.48,9.31071429 L26.16,7.62142857 L24.6,7.62142857 L24.28,9.31071429 L23.12,9.31071429 Z M25.32,3.18214286 L24.8,6.48214286 L25.92,6.48214286 L25.32,3.18214286 Z" id="Shape" fill="#FFFFFF"></path>
                        <polygon id="Shape" fill="#FFFFFF" points="28.68 9.31071429 28.68 1.72857143 30.24 1.72857143 31.72 6.99285714 31.72 6.99285714 31.72 1.72857143 32.8 1.72857143 32.8 9.31071429 31.28 9.31071429 29.76 3.77142857 29.76 3.77142857 29.76 9.31071429"></polygon>
                        <path d="M33.84,9.31071429 L35.36,1.72857143 L36.88,1.72857143 L38.4,9.31071429 L37.2,9.31071429 L36.88,7.62142857 L35.32,7.62142857 L35,9.31071429 L33.84,9.31071429 Z M36.04,3.18214286 L35.48,6.44285714 L36.6,6.44285714 L36.04,3.18214286 Z" id="Shape" fill="#FFFFFF"></path>
                        <polygon id="Shape" fill="#FFFFFF" points="39.4 9.31071429 39.4 1.72857143 40.56 1.72857143 40.56 8.05357143 42.28 8.05357143 42.28 9.31071429"></polygon>
                        <path d="M1.68,5.5 C1.68,3.49642857 1.68,1.61071429 3.8,1.61071429 C5.12,1.61071429 5.64,2.51428571 5.56,4.125 L4.32,4.125 C4.32,3.10357143 4.16,2.75 3.8,2.75 C3.08,2.75 3,3.575 3,5.53928571 C3,7.50357143 3.08,8.32857143 3.8,8.32857143 C4.4,8.32857143 4.36,7.38571429 4.4,6.79642857 L5.64,6.79642857 C5.64,8.8 5,9.46785714 3.8,9.46785714 C1.68,9.42857143 1.68,7.50357143 1.68,5.5" id="Shape" fill="#FFFFFF"></path>
                        <rect id="Rectangle-path" fill="#FFFFFF" x="6.44" y="1.72857143" width="1.28" height="7.58214286"></rect>
                        <polygon id="Shape" fill="#FFFFFF" points="8.8 9.31071429 8.8 1.72857143 10.52 1.72857143 12.16 6.95357143 12.16 6.95357143 12.16 1.72857143 13.36 1.72857143 13.36 9.31071429 11.68 9.31071429 10 3.77142857 10 3.77142857 10 9.31071429"></polygon>
                        <polygon id="Shape" fill="#FFFFFF" points="14.44 9.31071429 14.44 1.72857143 17.76 1.72857143 17.76 2.90714286 15.72 2.90714286 15.72 4.75357143 17.6 4.75357143 17.6 5.93214286 15.72 5.93214286 15.72 8.13214286 17.84 8.13214286 17.84 9.31071429"></polygon>
                    </g>
                </g>
            </g>
        </g>
    </g>
</svg>