<?xml version="1.0" encoding="UTF-8"?>
<svg width="70px" height="55px" viewBox="0 0 70 55" version="1.1" xmlns="http://www.w3.org/2000/svg" xmlns:xlink="http://www.w3.org/1999/xlink">
    <!-- Generator: Sketch 49.1 (51147) - http://www.bohemiancoding.com/sketch -->
    <title>channel</title>
    <desc>Created with Sketch.</desc>
    <defs></defs>
    <g id="Page-1" stroke="none" stroke-width="1" fill="none" fill-rule="evenodd">
        <g id="channel">
            <g id="Rectangle" style="mix-blend-mode: overlay;">
                <g id="path-1-link" style="mix-blend-mode: multiply;" fill="#000204">
                    <rect id="path-1" x="0" y="0" width="70" height="55" rx="4"></rect>
                </g>
                <rect id="Rectangle-path" stroke="#FFFFFF" opacity="0.523890399" x="0.5" y="0.5" width="69" height="54" rx="4"></rect>
            </g>
            <path d="M34.648591,18.2852568 C34.648591,17.7652107 34.1671302,17.3444345 33.5721171,17.3444345 L33.3469596,17.3444345 C32.7525954,17.3444345 32.2646459,17.7652107 32.2646459,18.2852568 L32.2646459,24.7153836 C32.2646459,25.2360702 32.7525954,25.6581273 33.3469596,25.6581273 L33.5721171,25.6581273 C34.1671302,25.6581273 34.648591,25.2360702 34.648591,24.7153836 L34.648591,18.2852568 Z M40.8050612,21.5035225 C40.8050612,25.5076214 37.5152948,28.7534264 33.4585651,28.7534264 C29.3979421,28.7534264 26.1075269,25.5076214 26.1075269,21.5035225 C26.1075269,17.4949404 29.3979421,14.247214 33.4585651,14.247214 C37.5152948,14.247214 40.8050612,17.4949404 40.8050612,21.5035225 Z M43.3804227,14.0108877 L38.6138302,14.0108877 L42.9060994,21.196106 L38.3354653,29 L43.0248424,29 L45.1284761,25.2296657 L47.2334075,29 L52,29 L47.5104746,21.196106 L51.6457175,14 L47.0160364,14 L45.208287,17.1484565 L43.3804227,14.0108877 Z M26.3781053,18.0098629 L21.213756,18.0098629 L21.213756,20.0509799 L25.3464034,20.0509799 L25.3464034,24.0493147 L21.2929181,24.0115281 L21.2929181,28.992955 L17,28.992955 L17,14.0108877 L26.0601594,14.0108877 L26.3781053,18.0098629 Z" id="Shape" fill="#FFFFFF" fill-rule="nonzero"></path>
            <text id="130" fill-opacity="0.6" fill="#FFFFFF" font-family="Poppins-Light, Poppins" font-size="10" font-weight="300">
                <tspan x="26" y="47">130</tspan>
            </text>
        </g>
    </g>
</svg>