<?xml version="1.0" encoding="UTF-8" standalone="no"?>
<svg width="70px" height="55px" viewBox="0 0 70 55" version="1.1" xmlns="http://www.w3.org/2000/svg" xmlns:xlink="http://www.w3.org/1999/xlink">
    <!-- Generator: Sketch 50 (54983) - http://www.bohemiancoding.com/sketch -->
    <title>channel3</title>
    <desc>Created with Sketch.</desc>
    <defs>
        <path d="M2.47070312,10 L2.47070312,3.93066406 L2.39257812,3.93066406 L0.600585938,5.22949219 L0.600585938,4.30175781 L2.47558594,2.95410156 L3.34960938,2.95410156 L3.34960938,10 L2.47070312,10 Z M7.00683594,6.75292969 L7.00683594,6.00097656 L7.86132812,6.00097656 C8.66210938,6.00097656 9.22851562,5.48339844 9.22851562,4.75097656 C9.22851562,4.03320312 8.68652344,3.5546875 7.87597656,3.5546875 C7.06542969,3.5546875 6.53320312,4.00390625 6.45996094,4.76074219 L5.60546875,4.76074219 C5.69335938,3.54003906 6.56738281,2.78808594 7.91015625,2.78808594 C9.140625,2.78808594 10.1220703,3.60839844 10.1220703,4.63378906 C10.1220703,5.47363281 9.65820312,6.08886719 8.88671875,6.27441406 L8.88671875,6.35253906 C9.84375,6.47460938 10.4248047,7.13867188 10.4248047,8.10058594 C10.4248047,9.26269531 9.3359375,10.1660156 7.94433594,10.1660156 C6.51367188,10.1660156 5.52734375,9.37011719 5.46386719,8.1640625 L6.31347656,8.1640625 C6.39160156,8.91601562 7.02636719,9.39941406 7.93457031,9.39941406 C8.86230469,9.39941406 9.52148438,8.84765625 9.52148438,8.07617188 C9.52148438,7.26074219 8.90136719,6.75292969 7.90039062,6.75292969 L7.00683594,6.75292969 Z M14.3212891,10.1660156 C12.734375,10.1660156 11.8212891,8.81835938 11.8212891,6.47460938 C11.8212891,4.15039062 12.7441406,2.78808594 14.3212891,2.78808594 C15.8886719,2.78808594 16.8115234,4.15527344 16.8115234,6.48925781 C16.8115234,8.828125 15.9033203,10.1660156 14.3212891,10.1660156 Z M14.3212891,9.39941406 C15.3613281,9.39941406 15.9277344,8.36425781 15.9277344,6.47460938 C15.9277344,4.60449219 15.3515625,3.55957031 14.3212891,3.55957031 C13.2910156,3.55957031 12.7050781,4.61425781 12.7050781,6.47460938 C12.7050781,8.359375 13.28125,9.39941406 14.3212891,9.39941406 Z" id="path-1"></path>
    </defs>
    <g id="Page-1" stroke="none" stroke-width="1" fill="none" fill-rule="evenodd">
        <g id="channel3">
            <g id="Rectangle" style="mix-blend-mode: overlay;">
                <g id="path-1-link" style="mix-blend-mode: multiply;" fill="#000204">
                    <rect id="path-1" x="0" y="0" width="70" height="55" rx="4"></rect>
                </g>
                <rect id="Rectangle-path" stroke="#1D4B68" x="0.5" y="0.5" width="69" height="54" rx="3"></rect>
            </g>
            <path d="M34.648591,18.2852568 C34.648591,17.7652107 34.1671302,17.3444345 33.5721171,17.3444345 L33.3469596,17.3444345 C32.7525954,17.3444345 32.2646459,17.7652107 32.2646459,18.2852568 L32.2646459,24.7153836 C32.2646459,25.2360702 32.7525954,25.6581273 33.3469596,25.6581273 L33.5721171,25.6581273 C34.1671302,25.6581273 34.648591,25.2360702 34.648591,24.7153836 L34.648591,18.2852568 Z M40.8050612,21.5035225 C40.8050612,25.5076214 37.5152948,28.7534264 33.4585651,28.7534264 C29.3979421,28.7534264 26.1075269,25.5076214 26.1075269,21.5035225 C26.1075269,17.4949404 29.3979421,14.247214 33.4585651,14.247214 C37.5152948,14.247214 40.8050612,17.4949404 40.8050612,21.5035225 Z M43.3804227,14.0108877 L38.6138302,14.0108877 L42.9060994,21.196106 L38.3354653,29 L43.0248424,29 L45.1284761,25.2296657 L47.2334075,29 L52,29 L47.5104746,21.196106 L51.6457175,14 L47.0160364,14 L45.208287,17.1484565 L43.3804227,14.0108877 Z M26.3781053,18.0098629 L21.213756,18.0098629 L21.213756,20.0509799 L25.3464034,20.0509799 L25.3464034,24.0493147 L21.2929181,24.0115281 L21.2929181,28.992955 L17,28.992955 L17,14.0108877 L26.0601594,14.0108877 L26.3781053,18.0098629 Z" id="Shape" fill="#FFFFFF" fill-rule="nonzero"></path>
            <g id="130" transform="translate(26.000000, 36.000000)">
                <g>
                    <use fill="#000000" xlink:href="#path-1"></use>
                    <use fill-opacity="0.6" fill="#FFFFFF" xlink:href="#path-1"></use>
                </g>
            </g>
        </g>
    </g>
</svg>