<?xml version="1.0" encoding="UTF-8" standalone="no"?>
<svg width="27px" height="6px" viewBox="0 0 27 6" version="1.1" xmlns="http://www.w3.org/2000/svg" xmlns:xlink="http://www.w3.org/1999/xlink">
    <!-- Generator: Sketch 50 (54983) - http://www.bohemiancoding.com/sketch -->
    <title>2292</title>
    <desc>Created with Sketch.</desc>
    <defs></defs>
    <g id="Symbols" stroke="none" stroke-width="1" fill="none" fill-rule="evenodd">
        <g id="desktop/guide-1" transform="translate(-21.000000, -23.000000)" fill-rule="nonzero">
            <g id="content">
                <g transform="translate(14.000000, 14.000000)">
                    <g id="señal-title">
                        <g id="2292" transform="translate(7.200000, 9.000000)">
                            <path d="M19.2683898,2.64576923 L19.3514492,3.39646154 L18.7910847,3.39623077 L19.2683898,2.64576923 Z M26.7828559,0.123461538 L25.2546102,5.87630769 L0.217144068,5.87653846 L1.74538983,0.123923077 L26.7828559,0.123461538 Z M22.9262034,2.96376923 L24.2487458,1.45338462 L23.0623475,1.45361538 L22.4404322,2.20430769 L22.0905763,1.45361538 L20.982661,1.45338462 L21.7025085,2.91923077 L20.5117627,4.28053846 L20.0875424,1.45823077 L19.071839,1.458 L17.0887119,4.34630769 L17.8591271,1.45361538 L16.733822,1.45338462 L15.7881356,2.53984615 L15.4204322,1.45338462 L14.4090763,1.45361538 L13.5862627,4.54453846 L14.5884661,4.54453846 L14.9957542,3.01223077 L15.407161,4.11184615 L15.4250085,4.11184615 L16.4226356,3.01223077 L16.0160339,4.54430769 L16.9530254,4.54453846 L17.0356271,4.54430769 L18.0689492,4.54453846 L18.3364322,4.12938462 L19.409339,4.12938462 L19.4612797,4.54453846 L20.2808898,4.54453846 L20.5515763,4.54453846 L21.4672881,4.54453846 L22.1967458,3.67015385 L22.5706271,4.54476923 L23.6783136,4.54453846 L22.9262034,2.96376923 Z M12.1721949,2.61507692 L12.2554831,2.30146154 L13.8624407,2.30146154 L14.0898814,1.45384615 L11.4761441,1.45361538 L10.6528729,4.54476923 L13.2652373,4.54476923 L13.4890169,3.69692308 L11.8832034,3.69715385 L11.9751864,3.36161538 L13.4723136,3.36138462 L13.6695508,2.61530769 L12.1721949,2.61530769 L12.1721949,2.61507692 Z M7.2680339,4.54453846 L8.28373729,4.54453846 L8.69560169,3.00784615 L9.42231356,4.54453846 L10.3329915,4.54453846 L11.1560339,1.45361538 L10.1403305,1.45338462 L9.74608475,2.92846154 L9.04957627,1.45361538 L8.09084746,1.45384615 L7.2680339,4.54453846 Z M7.77622881,1.45361538 L6.75205932,1.45338462 L5.92855932,4.54453846 L6.95295763,4.54476923 L7.77622881,1.45361538 Z M3.11758475,4.00246154 C3.05466102,4.27961538 3.31138983,4.54569231 3.69442373,4.54615385 C3.69511017,4.54615385 3.69533898,4.54638462 3.69602542,4.54638462 L5.60638983,4.54638462 L5.84321186,3.68307692 L4.54492373,3.68330769 C4.37308475,3.68353846 4.22710169,3.61130769 4.28430508,3.39415385 L4.49344068,2.61069231 C4.55750847,2.36146154 4.77808475,2.32015385 5.00369492,2.32038462 L6.20633898,2.32107692 L6.43835593,1.45453846 L4.32297458,1.45523077 C4.0280339,1.45523077 3.78022881,1.61376923 3.67886441,1.88076923 L3.11758475,4.00246154 Z" id="Shape" fill="#070509"></path>
                            <g id="Group" transform="translate(2.974576, 1.384615)" fill="#E4B135">
                                <polygon id="Shape" points="3.77725424 0.0685384615 2.95398305 3.15946154 3.97838136 3.15969231 4.80165254 0.0687692308"></polygon>
                                <polygon id="Shape" points="7.16575424 0.0685384615 6.77173729 1.54361538 6.07522881 0.0685384615 5.1165 0.0687692308 4.29345763 3.15969231 5.30916102 3.15969231 5.72102542 1.623 6.44773729 3.15969231 7.35841525 3.15969231 8.18145763 0.0687692308"></polygon>
                                <path d="M1.3095,2.00907692 L1.51863559,1.22561538 C1.58270339,0.976384615 1.80327966,0.935076923 2.02888983,0.935307692 L3.2315339,0.936 L3.46377966,0.0694615385 L1.34839831,0.0701538462 C1.05345763,0.0701538462 0.805652542,0.228692308 0.704288136,0.495692308 L0.142779661,2.61761538 C0.0798559322,2.89476923 0.336584746,3.16084615 0.719618644,3.16130769 C0.720305085,3.16130769 0.720533898,3.16153846 0.721220339,3.16153846 L2.63158475,3.16153846 L2.86840678,2.29823077 L1.57011864,2.29846154 C1.39827966,2.29823077 1.25252542,2.226 1.3095,2.00907692 Z" id="Shape"></path>
                                <polygon id="Shape" points="9.00061017 1.97630769 10.4977373 1.97607692 10.6947458 1.23 9.19761864 1.23 9.28067797 0.916384615 10.8876356 0.916384615 11.1150763 0.0687692308 8.5015678 0.0685384615 7.6780678 3.15969231 10.2904322 3.15969231 10.5144407 2.31161538 8.90862712 2.31184615"></polygon>
                                <path d="M20.0875424,0.0687692308 L19.4656271,0.819461538 L19.1157712,0.0687692308 L18.0078559,0.0685384615 L18.7277034,1.53438462 L17.5369576,2.89569231 L17.1127373,0.0733846154 L16.0970339,0.0731538462 L14.1139068,2.96146154 L14.884322,0.0687692308 L13.7590169,0.0685384615 L12.8133305,1.155 L12.4456271,0.0685384615 L11.4342712,0.0687692308 L10.6114576,3.15969231 L11.613661,3.15969231 L12.0209492,1.62738462 L12.4323559,2.727 L12.4502034,2.727 L13.4478305,1.62738462 L13.0412288,3.15946154 L13.9782203,3.15969231 L14.060822,3.15946154 L15.0941441,3.15969231 L15.3616271,2.74453846 L16.4345339,2.74453846 L16.4864746,3.15969231 L17.3060847,3.15969231 L17.5767712,3.15969231 L18.4924831,3.15969231 L19.2219407,2.28530769 L19.595822,3.15992308 L20.7035085,3.15969231 L19.9516271,1.57869231 L21.2741695,0.0683076923 L20.0875424,0.0687692308 Z M15.8165085,2.01138462 L16.2938136,1.26092308 L16.3768729,2.01161538 L15.8165085,2.01138462 Z" id="Shape"></path>
                            </g>
                        </g>
                    </g>
                </g>
            </g>
        </g>
    </g>
</svg>