<?xml version="1.0" encoding="UTF-8"?>
<svg width="70px" height="55px" viewBox="0 0 70 55" version="1.1" xmlns="http://www.w3.org/2000/svg" xmlns:xlink="http://www.w3.org/1999/xlink">
    <!-- Generator: Sketch 49.1 (51147) - http://www.bohemiancoding.com/sketch -->
    <title>señal-title</title>
    <desc>Created with Sketch.</desc>
    <defs>
        <rect id="path-1" x="0" y="0" width="70" height="55" rx="4"></rect>
    </defs>
    <g id="Designs" stroke="none" stroke-width="1" fill="none" fill-rule="evenodd">
        <g id="002---MCGL---En-Vivo---Default" transform="translate(-450.000000, -1118.000000)">
            <g id="Section-1---Puede-ver" transform="translate(0.000000, 679.000000)">
                <g id="On-Demand-Destacados---x4" transform="translate(40.000000, 116.000000)">
                    <g id="Películas">
                        <g id="Título-Película---x1" transform="translate(0.000000, 323.000000)">
                            <g id="Group" transform="translate(410.000000, 0.000000)">
                                <g id="señal-title">
                                    <g id="Rectangle" style="mix-blend-mode: overlay;">
                                        <use fill="#000204" fill-rule="evenodd" style="mix-blend-mode: multiply;" xlink:href="#path-1"></use>
                                        <rect stroke="#FFFFFF" stroke-width="1" x="0.5" y="0.5" width="69" height="54" rx="4"></rect>
                                    </g>
                                    <g id="hbo" transform="translate(15.000000, 13.000000)" fill="#E93630" fill-rule="nonzero">
                                        <path d="M31.018,5.402 C33.0515,4.6335 35.4785,6.335 35.384,8.518 C35.5,10.5455 33.396,12.2715 31.4235,11.7895 C29.588,11.4755 28.341,9.4265 28.893,7.646 C29.1735,6.606 30,5.7435 31.018,5.402 M17.5015,10.2805 C17.4985,11.1465 17.4985,12.015 17.5015,12.884 C18.197,12.872 18.895,12.9175 19.587,12.8235 C20.596,12.427 20.5415,10.7345 19.575,10.3355 C18.886,10.244 18.1905,10.2865 17.5015,10.2805 M22.383,8.637 C22.886,8.939 23.334,9.32 23.7305,9.756 C23.642,9.0395 23.63,8.32 23.6755,7.6035 C23.2645,7.9725 22.8315,8.314 22.383,8.637 M31.317,4.4415 C29.0485,4.8255 27.469,7.3075 28.0515,9.527 C28.567,11.765 31.174,13.2285 33.3505,12.457 C35.317,11.8285 36.4455,9.545 35.991,7.5755 C35.5765,5.524 33.3935,3.9935 31.317,4.4415 M17.5015,6.786 C18.3736417,6.786 19.7485,7.1705 20.1815,6.094 C20.5625,5.408 20.2628472,4.46763397 19.595315,4.29330747 C18.9277827,4.11898097 18.2245,4.225 17.5015,4.225 C17.4985,5.0785 17.4985,5.9325 17.5015,6.786 Z M12.812,0.264 C15.2785,0.2825 17.7485,0.2215 20.215,0.2885 C22.4655,0.3675 24.362,2.3495 24.4105,4.594 C26.6,0.2185 32.8165,-1.132 36.698,1.786 C40.5275,4.4325 41.0825,10.415 38.064,13.8785 C35.7285,16.778 31.335,17.592 28.048,15.906 C26.4595,15.1285 25.2215,13.778 24.395,12.232 C24.517,14.3115 23.0535,16.4215 20.8915,16.592 C18.2025,16.7295 15.5005,16.6195 12.8085,16.644 C12.8185,11.183 12.809,5.722 12.812,0.264 M0.006,0.2245 C1.555,0.2245 3.107,0.2245 4.656,0.2245 C4.656,2.307 4.656,4.3895 4.656,6.475 C5.583,6.475 6.51,6.475 7.437,6.475 C7.44,4.3895 7.437,2.307 7.437,0.2245 C9.001,0.2245 10.5625,0.2245 12.1265,0.2245 C12.1295,5.7005 12.1265,11.1735 12.1265,16.65 C10.5655,16.653 9.004,16.65 7.44,16.653 C7.434,14.494 7.44,12.3325 7.44,10.1735 C6.51,10.1705 5.583,10.1705 4.656,10.1735 C4.656,12.3325 4.659,14.494 4.653,16.653 C3.101,16.647 1.552,16.662 0,16.641 C0.015,11.1675 0,5.698 0.006,0.2245" id="Shape"></path>
                                    </g>
                                    <text id="132" font-family="Poppins-Light, Poppins" font-size="10" font-weight="300" fill="#FFFFFF" fill-opacity="0.6">
                                        <tspan x="26" y="47">132</tspan>
                                    </text>
                                </g>
                            </g>
                        </g>
                    </g>
                </g>
            </g>
        </g>
    </g>
</svg>