<?xml version="1.0" encoding="UTF-8"?>
<svg width="95px" height="22px" viewBox="0 0 95 22" version="1.1" xmlns="http://www.w3.org/2000/svg" xmlns:xlink="http://www.w3.org/1999/xlink">
    <!-- Generator: Sketch 49.1 (51147) - http://www.bohemiancoding.com/sketch -->
    <title>logoMC-golive-negativo-BIG</title>
    <desc>Created with Sketch.</desc>
    <defs>
        <polygon id="path-1" points="0 21.9387085 94.9404032 21.9387085 94.9404032 0 0 0"></polygon>
    </defs>
    <g id="Symbols" stroke="none" stroke-width="1" fill="none" fill-rule="evenodd">
        <g id="navbar-mcgolive" transform="translate(-40.000000, -20.000000)">
            <g id="navbar">
                <g id="logoMC-golive-negativo-BIG" transform="translate(40.000000, 20.000000)">
                    <path d="M40.5754516,14.964197 C40.1372258,15.8022266 39.5372258,16.4636878 38.7750484,16.9485808 C38.0127903,17.4339609 37.1757742,17.6762044 36.2648871,17.6762044 C35.3535161,17.6762044 34.5123871,17.4339609 33.7415806,16.9485808 C32.9702097,16.4636878 32.3525484,15.8022266 31.8885161,14.964197 C31.424,14.1266546 31.1919839,13.1959978 31.1919839,12.1727948 C31.1919839,11.1673705 31.4194839,10.2458871 31.875371,9.40785756 C32.3308548,8.57023395 32.9485161,7.9129941 33.7284355,7.43662509 C34.5079516,6.96041845 35.3535161,6.72231513 36.2648871,6.72231513 C37.1757742,6.72231513 38.0127903,6.96041845 38.7750484,7.43662509 C39.5372258,7.9129941 40.1372258,8.57023395 40.5754516,9.40785756 C41.0132742,10.2458871 41.2325484,11.1673705 41.2325484,12.1727948 C41.2325484,13.1959978 41.0132742,14.1266546 40.5754516,14.964197 M44.8729516,7.27791661 C44.0055323,5.83176162 42.8137581,4.69401255 41.2982742,3.86466937 C39.7823871,3.0357321 38.0871452,2.6211417 36.2122258,2.6211417 C34.3371452,2.6211417 32.6417419,3.0357321 31.1262581,3.86466937 C29.610371,4.69401255 28.419,5.83176162 27.5516613,7.27791661 C26.6842419,8.72447749 26.2505323,10.3471196 26.2505323,12.1463299 C26.2505323,13.9633188 26.6842419,15.6083668 27.5516613,17.0809055 C28.419,18.5540125 29.610371,19.709459 31.1262581,20.5470827 C32.6417419,21.3851122 34.3371452,21.8038428 36.2122258,21.8038428 C38.0871452,21.8038428 39.7823871,21.3804849 41.2982742,20.533769 C42.8137581,19.6871343 44.0055323,18.5320125 44.8729516,17.0676731 C45.740371,15.6038207 46.174,13.9633188 46.174,12.1463299 C46.174,10.3471196 45.740371,8.72447749 44.8729516,7.27791661" id="Fill-1" fill="#FFFFFF"></path>
                    <path d="M53.0378065,16.8377771 C53.0378065,17.231017 53.1196613,17.5361756 53.2845,17.7533343 C53.4487742,17.9706554 53.7671613,18.0792753 54.2402258,18.0792753 C54.5279677,18.0792753 54.8772419,18.048183 55.2886129,17.9861609 L55.4428065,21.4003823 C55.0313548,21.5244266 54.5640161,21.6224118 54.0399032,21.695231 C53.5157097,21.7674819 52.9760323,21.8038509 52.4211129,21.8038509 C51.5986935,21.8038509 50.9102258,21.6797255 50.3552258,21.4313934 C49.8002258,21.1831424 49.3579677,20.8523306 49.0294194,20.4382273 C48.7003065,20.0245299 48.4637742,19.5536 48.3203065,19.0259247 C48.1761935,18.4982494 48.1044194,17.9551498 48.1044194,17.3964635 L48.1044194,2.89042657 L53.0378065,2.89042657 L53.0378065,16.8377771 Z" id="Fill-3" fill="#FC3F3F"></path>
                    <mask id="mask-2" fill="white">
                        <use xlink:href="#path-1"></use>
                    </mask>
                    <g id="Clip-6"></g>
                    <path d="M57.6010484,21.4935129 L62.5344355,21.4935129 L62.5344355,6.28469373 L57.6010484,6.28469373 L57.6010484,21.4935129 Z M57.2927419,2.79351292 C57.2927419,2.00735793 57.5495161,1.34540959 58.0635484,0.80701845 C58.5770968,0.269195572 59.2452419,0 60.0677419,0 C60.8895968,0 61.5578226,0.269195572 62.0718548,0.80701845 C62.5854032,1.34540959 62.8427419,2.00735793 62.8427419,2.79351292 C62.8427419,3.58015498 62.5854032,4.2421845 62.0718548,4.78000738 C61.5578226,5.31823616 60.8895968,5.58694465 60.0677419,5.58694465 C59.2452419,5.58694465 58.5770968,5.31823616 58.0635484,4.78000738 C57.5495161,4.2421845 57.2927419,3.58015498 57.2927419,2.79351292 Z" id="Fill-5" fill="#FC3F3F" mask="url(#mask-2)"></path>
                    <polygon id="Fill-7" fill="#FC3F3F" mask="url(#mask-2)" points="69.5952661 21.4934642 64.3535726 6.28464502 69.3177661 6.28464502 72.2160726 16.9618701 75.1144597 6.28464502 80.0786532 6.28464502 74.8369597 21.4934642"></polygon>
                    <path d="M88.3728306,9.14018819 C87.5914597,9.14018819 86.9900887,9.39379705 86.569121,9.90069004 C86.1475081,10.4079077 85.9369435,11.1063063 85.9369435,11.9957232 L90.3153306,11.9957232 C90.3562984,11.8304391 90.3770242,11.6542768 90.3770242,11.468048 C90.3770242,10.8060996 90.2021048,10.25269 89.8529113,9.80757565 C89.5030726,9.36278598 89.0096855,9.14018819 88.3728306,9.14018819 M88.5269435,5.97429889 C90.5003306,5.97429889 92.0621855,6.55912546 93.2136371,7.72796679 C94.3646048,8.89721402 94.9404113,10.5166089 94.9404113,12.5854207 C94.9404113,13.3720627 94.8478306,14.2100923 94.6628306,15.0995092 L85.9061371,15.0995092 C85.9471048,16.0307343 86.2607339,16.7810074 86.8465403,17.3498413 C87.4323468,17.9192435 88.331379,18.2034576 89.5444435,18.2034576 C90.2844435,18.2034576 91.0601694,18.1364834 91.8724274,18.0016421 C92.6842016,17.867369 93.3880726,17.6656347 93.9845242,17.3964391 L94.6011371,20.5933395 C93.8197661,20.9867417 92.9410565,21.2868672 91.9649274,21.4934723 C90.9883952,21.7001587 89.9762177,21.8038266 88.9278306,21.8038266 C87.6120242,21.8038266 86.4504919,21.612321 85.4436371,21.2297159 C84.4362984,20.8470295 83.5935565,20.3140775 82.91525,19.6311033 C82.2369435,18.9482915 81.7229113,18.1311255 81.3735565,17.1791181 C81.0237984,16.227679 80.8494435,15.1723284 80.8494435,14.0131476 C80.8494435,12.7716494 81.029121,11.6542768 81.3889597,10.6611107 C81.7483145,9.66786347 82.2624274,8.82488192 82.9307339,8.13143542 C83.5984758,7.43839483 84.4054113,6.9054428 85.3511371,6.53298524 C86.2962984,6.16052768 87.3553306,5.97429889 88.5269435,5.97429889" id="Fill-8" fill="#FC3F3F" mask="url(#mask-2)"></path>
                    <path d="M14.8648468,9.58668266 L14.8649274,9.58684502 L4.85589516,3.12558303 C4.32460484,2.7851107 3.72726613,2.62112546 3.13734677,2.62112546 C2.10323387,2.62112546 1.09202419,3.12469004 0.498798387,4.0632214 C0.166298387,4.56532472 8.06451567e-06,5.16817343 8.06451567e-06,5.80365683 L8.06451567e-06,18.7584908 C8.06451567e-06,20.4990074 1.39645968,21.9386679 3.15928226,21.9386679 C3.75807258,21.9386679 4.35694355,21.7713542 4.85581452,21.4365646 L14.8648468,14.9429114 C16.3275887,14.0053542 16.7600887,12.0307934 15.8287177,10.5568745 C15.5637177,10.1555166 15.2311371,9.82072694 14.8648468,9.58668266" id="Fill-9" fill="#FC3F3F" mask="url(#mask-2)"></path>
                    <path d="M20.9741935,11.991031 L19.5062097,11.991031 L19.5062097,15.7316804 L20.9741935,15.7316804 L20.9741935,16.7766399 C19.7823387,17.3765661 18.7223387,17.6762044 17.7937097,17.6762044 C16.8122581,17.6762044 15.9185484,17.4381823 15.1127419,16.9618133 C14.7948387,16.7740421 14.5052419,16.5569646 14.2418548,16.3129351 L10.2559677,18.8988686 C10.8821774,19.5410089 11.6026613,20.0908465 12.418629,20.5470827 C13.9167742,21.3851122 15.5945161,21.8038428 17.4520968,21.8038428 C18.7309677,21.8038428 20.0846774,21.5788908 21.5130645,21.1290679 C22.9409677,20.6793262 24.1455645,20.0931196 25.1270968,19.3696362 L25.1270968,11.9876214 L20.9741935,11.9876214 L20.9741935,11.991031 Z" id="Fill-10" fill="#FFFFFF" mask="url(#mask-2)"></path>
                    <path d="M14.1520323,8.16221107 C14.4325968,7.8874952 14.7426774,7.64427749 15.0864677,7.43661697 C15.8750161,6.96041033 16.7596129,6.72230701 17.7412258,6.72230701 C18.5823548,6.72230701 19.4364677,6.90748044 20.3038871,7.27790849 C21.1713065,7.64833653 21.9376774,8.15100812 22.6038065,8.78608561 L25.3373548,5.3993845 C24.3911452,4.55266863 23.2346129,3.87797491 21.8678387,3.37522214 C20.5010645,2.87255055 19.1342097,2.62113358 17.7674355,2.62113358 C15.8573548,2.62113358 14.1270323,3.03580517 12.5763065,3.86466125 C11.6777581,4.34517048 10.8917097,4.93137712 10.2167097,5.62181993 L14.1520323,8.16221107 Z" id="Fill-11" fill="#FFFFFF" mask="url(#mask-2)"></path>
                    <polygon id="Fill-12" fill="#FFFFFF" mask="url(#mask-2)" points="7.0516371 9.82721328 8.42421774 9.82721328 7.48139516 14.7186819 6.36534677 14.7186819 6.97542742 11.5786081 5.20091129 14.2302982 4.3898629 14.2302982 3.64816935 11.5717077 3.03808871 14.7186819 1.92220161 14.7186819 2.8648629 9.82721328 4.23042742 9.82721328 5.09002419 12.7230952"></polygon>
                    <path d="M12.5276371,9.97720295 C12.8648952,10.1284428 13.1422339,10.3343173 13.3594113,10.5947454 L12.5276371,11.4878967 C12.3890081,11.2879483 12.2179597,11.1285092 12.0147339,11.0100664 C11.8112661,10.8914613 11.6032823,10.8320369 11.3907823,10.8320369 C11.1274758,10.8320369 10.8824758,10.9007159 10.6561048,11.0378303 C10.4295726,11.175107 10.2505403,11.3623911 10.1188468,11.5995203 C9.98715323,11.8368118 9.92134677,12.0974022 9.92134677,12.3811292 C9.92134677,12.623048 9.97215323,12.8416679 10.0738468,13.0369889 C10.175379,13.2323911 10.3164274,13.3858229 10.4965887,13.4975277 C10.6768306,13.6091513 10.8801371,13.6650849 11.1066694,13.6650849 C11.3052984,13.6650849 11.5190887,13.613941 11.7477984,13.511572 C11.9765887,13.4092841 12.185621,13.2696531 12.3750565,13.0927601 L13.0336855,13.8953137 C12.7425565,14.1743321 12.4074758,14.3966052 12.0286048,14.5616458 C11.6495726,14.7266863 11.2822339,14.8093284 10.9265081,14.8093284 C10.478121,14.8093284 10.0783629,14.7093137 9.72715323,14.5093653 C9.37594355,14.3093358 9.1033629,14.0337269 8.90925,13.6824576 C8.7151371,13.3313506 8.61812097,12.9347823 8.61812097,12.4926716 C8.61812097,11.9812325 8.74521774,11.5159041 8.99941129,11.0971734 C9.25344355,10.6786052 9.60005645,10.3494982 10.0391694,10.1098524 C10.478121,9.87028782 10.9586855,9.75054613 11.4809435,9.75054613 C11.8414274,9.75054613 12.1902177,9.82612546 12.5276371,9.97720295" id="Fill-13" fill="#FFFFFF" mask="url(#mask-2)"></path>
                </g>
            </g>
        </g>
    </g>
</svg>