<?xml version="1.0" encoding="UTF-8"?>
<svg width="86px" height="28px" viewBox="0 0 86 28" version="1.1" xmlns="http://www.w3.org/2000/svg" xmlns:xlink="http://www.w3.org/1999/xlink">
    <!-- Generator: Sketch 49.1 (51147) - http://www.bohemiancoding.com/sketch -->
    <title>logoMC-positivo-sm</title>
    <desc>Created with Sketch.</desc>
    <defs></defs>
    <g id="Symbols" stroke="none" stroke-width="1" fill="none" fill-rule="evenodd">
        <g id="Footer-MCGOLIVE" transform="translate(-40.000000, -27.000000)" fill="#FFFFFF">
            <g id="Section-7---Footer">
                <g id="logoMC-positivo-sm" transform="translate(40.000000, 27.000000)">
                    <path d="M7.62723551,17.14992 L6.84519813,19.89872 C6.53897383,20.98272 6.2006,22.43472 5.90964673,23.68512 L5.86383364,23.68512 C5.6468243,22.43472 5.34140374,21.06192 5.04884299,19.92832 L4.3737028,17.14992 L0.645964486,17.14992 L-0.000241121495,27.44352 L2.54760935,27.44352 L2.71800187,23.74832 C2.76381495,22.58752 2.81043178,21.06192 2.86910467,19.60832 L2.90205794,19.60832 C3.14719813,21.01232 3.45583364,22.54192 3.73151589,23.63952 L4.59151589,27.22992 L6.75276822,27.22992 L7.78235701,23.63952 C8.1199271,22.50992 8.54831963,20.96832 8.87061869,19.60832 L8.91723551,19.60832 C8.91723551,21.21232 8.93089907,22.58752 8.97912336,23.74832 L9.10048785,27.44352 L11.7857776,27.44352 L11.2641514,17.14992 L7.62723551,17.14992 Z" id="Fill-1"></path>
                    <path d="M17.4330037,26.52728 C15.3143495,26.52728 14.1175832,24.55768 14.1175832,22.34328 C14.1175832,20.09688 15.2227234,18.05048 17.4466673,18.05048 C19.6730224,18.05048 20.7468168,20.18888 20.7468168,22.24968 C20.7468168,24.58808 19.5500505,26.52728 17.4330037,26.52728 M17.4940879,16.96648 C14.7316393,16.96648 12.7070224,19.10488 12.7070224,22.37368 C12.7070224,25.48888 14.6086673,27.61288 17.3550411,27.61288 C19.993714,27.61288 22.1581813,25.71848 22.1581813,22.19128 C22.1581813,19.12008 20.3328916,16.96648 17.4940879,16.96648" id="Fill-4"></path>
                    <polygon id="Fill-6" points="32.0415907 18.2808 35.1866187 18.2808 35.1866187 27.444 36.5368991 27.444 36.5368991 18.2808 39.6971981 18.2808 39.6971981 17.1496 32.0415907 17.1496"></polygon>
                    <polygon id="Fill-8" points="41.8006617 22.61672 45.8040822 22.61672 45.8040822 21.51832 41.8006617 21.51832 41.8006617 18.26632 46.0500262 18.26632 46.0500262 17.15032 40.4479701 17.15032 40.4479701 27.44392 46.2806991 27.44392 46.2806991 26.32872 41.8006617 26.32872"></polygon>
                    <path d="M52.4639383,18.0964 C53.3231346,18.0964 54.0448916,18.2804 54.5367794,18.5244 L54.8743495,17.4396 C54.5215084,17.2564 53.6912467,16.982 52.4181252,16.982 C49.2104056,16.982 47.0162,19.1516 47.0162,22.3876 C47.0162,25.7796 49.1967421,27.6132 52.1102935,27.6132 C53.3689477,27.6132 54.3671907,27.3676 54.8430037,27.1236 L54.580985,26.054 C54.0448916,26.3148 53.2162374,26.4812 52.3883869,26.4812 C49.8863495,26.4812 48.4283682,24.8772 48.4283682,22.3436 C48.4283682,19.6388 50.0398636,18.0964 52.4639383,18.0964" id="Fill-10"></path>
                    <path d="M58.1572187,23.16672 L59.1675178,20.18832 C59.3837234,19.56432 59.5372374,18.92272 59.6923589,18.32592 L59.7212935,18.32592 C59.8740037,18.92272 60.0283215,19.53232 60.2581907,20.20352 L61.2869757,23.16672 L58.1572187,23.16672 Z M58.9553308,17.14992 L55.4245084,27.44352 L56.8037234,27.44352 L57.8791252,24.20592 L61.5497981,24.20592 L62.6525271,27.44352 L64.0791626,27.44352 L60.5507514,17.14992 L58.9553308,17.14992 Z" id="Fill-12"></path>
                    <path d="M67.670185,26.496 C67.194372,26.496 66.8278673,26.4816 66.5497738,26.436 L66.5497738,22.5104 L67.6541103,22.5104 C69.1104841,22.5104 70.324129,23.108 70.324129,24.4952 C70.324129,25.992 69.0510075,26.496 67.670185,26.496 Z M66.5497738,18.188 C66.7635682,18.1424 67.1172131,18.096 67.7320729,18.096 C69.0799421,18.096 69.9873626,18.5872 69.9873626,19.7768 C69.9873626,20.7688 69.1587084,21.5184 67.762615,21.5184 L66.5497738,21.5184 L66.5497738,18.188 Z M69.6031757,21.9448 L69.6031757,21.8992 C70.6777738,21.5184 71.352914,20.6472 71.352914,19.6384 C71.352914,18.8296 71.0137364,18.2184 70.4760355,17.8216 C69.8491196,17.3024 68.9915308,17.0744 67.6541103,17.0744 C66.7346336,17.0744 65.7974748,17.1648 65.2147645,17.3024 L65.2147645,27.4128 C65.6608393,27.4728 66.3673252,27.5352 67.2868019,27.5352 C68.9738486,27.5352 70.1408766,27.2296 70.8465589,26.5728 C71.3834561,26.0848 71.733886,25.3976 71.733886,24.5104 C71.733886,22.984 70.5845402,22.176 69.6031757,21.9448 Z" id="Fill-14"></path>
                    <polygon id="Fill-16" points="74.4842785 17.14992 73.1315869 17.14992 73.1315869 27.44352 78.9016243 27.44352 78.9016243 26.32912 74.4842785 26.32912"></polygon>
                    <polygon id="Fill-18" points="81.3431402 26.3288 81.3431402 22.6168 85.3465607 22.6168 85.3465607 21.5184 81.3431402 21.5184 81.3431402 18.2656 85.5917009 18.2656 85.5917009 17.1496 79.9896449 17.1496 79.9896449 27.444 85.8207664 27.444 85.8207664 26.3288"></polygon>
                    <path d="M23.6600467,27.20304 L23.6600467,17.13104 L25.1003458,17.13104 L28.3273551,22.22704 C29.0635794,23.40704 29.663972,24.46704 30.1293364,25.49984 L30.1743458,25.48624 C30.0545888,24.14064 30.0240467,22.91424 30.0240467,21.34464 L30.0240467,17.13104 L31.2553738,17.13104 L31.2553738,27.20304 L29.9348318,27.20304 L26.7230935,22.09344 C26.0158037,20.97104 25.3406636,19.82064 24.8455607,18.72944 L24.8005514,18.74304 C24.8761028,20.01504 24.8913738,21.22624 24.8913738,22.89984 L24.8913738,27.20304 L23.6600467,27.20304 Z" id="Fill-20"></path>
                    <path d="M42.7032598,5.98472 C42.4235589,2.70232 41.2219701,0.74072 41.2219701,0.74072 C36.2918393,-0.49688 19.5178206,0.15432 18.0686804,0.31272 C16.6195402,0.47112 16.3952972,0.97832 16.3952972,0.97832 C15.3496336,9.84552 17.6073346,12.93032 17.6073346,12.93032 C18.7687364,13.39912 21.9901196,13.39352 21.9901196,13.39352 C21.9901196,13.39352 22.170157,13.59992 22.5615776,13.90952 C22.6017645,13.93912 22.6443626,13.96792 22.6853533,14.00152 C22.6869607,14.00232 22.6885682,14.00552 22.6909794,14.00712 C23.2865495,14.46152 23.9496336,14.83352 24.6159327,15.13192 L24.6143252,15.12072 C25.4678953,15.50712 26.5481196,15.87832 27.8847364,16.14552 L27.8903626,16.15272 C28.3308112,16.23912 28.6000636,16.27352 28.6000636,16.27352 C27.6299514,14.65672 28.4200262,13.38712 28.4200262,13.38712 C28.7487551,13.42552 39.8017645,13.05912 40.8643065,12.88072 C41.9260449,12.70152 42.7466617,12.17592 42.7466617,12.17592 C43.1670168,11.07752 42.9845682,9.26392 42.7032598,5.98472" id="Fill-22"></path>
                </g>
            </g>
        </g>
    </g>
</svg>