<?xml version="1.0" encoding="UTF-8"?>
<svg width="70px" height="55px" viewBox="0 0 70 55" version="1.1" xmlns="http://www.w3.org/2000/svg" xmlns:xlink="http://www.w3.org/1999/xlink">
    <!-- Generator: Sketch 49.1 (51147) - http://www.bohemiancoding.com/sketch -->
    <title>señal-title</title>
    <desc>Created with Sketch.</desc>
    <defs>
        <rect id="path-1" x="0" y="0" width="70" height="55" rx="4"></rect>
    </defs>
    <g id="Designs" stroke="none" stroke-width="1" fill="none" fill-rule="evenodd">
        <g id="002---MCGL---En-Vivo---Default" transform="translate(-450.000000, -1411.000000)">
            <g id="Section-1---Puede-ver" transform="translate(0.000000, 679.000000)">
                <g id="On-Demand-Destacados---x4" transform="translate(40.000000, 116.000000)">
                    <g id="Películas">
                        <g id="Título-Película---x1-Copy-2" transform="translate(0.000000, 616.000000)">
                            <g id="Group" transform="translate(410.000000, 0.000000)">
                                <g id="señal-title">
                                    <g id="Rectangle" style="mix-blend-mode: overlay;">
                                        <use fill="#000204" fill-rule="evenodd" style="mix-blend-mode: multiply;" xlink:href="#path-1"></use>
                                        <rect stroke="#FFFFFF" stroke-width="1" x="0.5" y="0.5" width="69" height="54" rx="4"></rect>
                                    </g>
                                    <g id="isat" transform="translate(15.000000, 15.000000)" fill-rule="nonzero">
                                        <path d="M11.2812,6.41588889 C11.5016,5.83994444 12.1552,5.45105556 12.784,5.54361111 C12.4312,5.67544444 12.096,5.8905 11.9052,6.216 C11.6032,6.71805556 11.66,7.40561111 12.06,7.84311111 C12.2476,8.06788889 12.5232,8.19077778 12.7816,8.32144444 C12.43,8.33466667 12.066,8.26583333 11.7804,8.05661111 C11.2524,7.70661111 11.0424,6.98833333 11.2812,6.41588889 M5.5128,0.234111111 C7.0292,-0.0983888889 8.6576,0.0766111111 10.0616,0.725666667 C11.5196,1.38833333 12.7216,2.55577778 13.4164,3.96627778 C12.472,3.73138889 11.4444,3.97016667 10.6816,4.55077778 C10.1548,3.80761111 9.3964,3.21766667 8.5184,2.91783333 C7.4364,2.54294444 6.2004,2.60011111 5.1668,3.09166667 C4.1016,3.58088889 3.2628,4.51072222 2.8972,5.59883333 C2.6612,6.28988889 2.614,7.03966667 2.7632,7.75327778 C2.9928,8.90905556 3.75,9.95283333 4.786,10.5602778 C5.6436,11.0724444 6.6856,11.2746667 7.6804,11.1338889 C8.8892,10.9725 10.002,10.283 10.6792,9.29911111 C11.2404,9.71133333 11.9296,9.98083333 12.6404,9.96683333 C12.8992,9.97383333 13.1564,9.9365 13.4104,9.89294444 C12.6636,11.4103889 11.3264,12.6431667 9.7204,13.2708333 C8.3104,13.8351111 6.7108,13.9350556 5.2384,13.5504444 C3.668,13.1518333 2.258,12.1971111 1.3164,10.913 C0.3964,9.66816667 -0.0768,8.11766667 0.0104,6.58583333 C0.084,4.94005556 0.8056,3.33238889 1.99,2.15522222 C2.9392,1.20088889 4.178,0.519166667 5.5128,0.234111111" id="Shape" fill="#00AAAD"></path>
                                        <path d="M12.9764,5.55216667 C13.8188,5.40555556 14.6412,6.17127778 14.576,6.99066667 C14.5652,7.78283333 13.7428,8.44433333 12.9392,8.28955556 C13.2768,8.21994444 13.584,8.02822222 13.7856,7.75483333 C14.1376,7.29205556 14.1496,6.615 13.8124,6.14172222 C13.6196,5.852 13.3076,5.66066667 12.9764,5.55216667 M6.1936,4.49866667 C6.802,4.48194444 7.4108,4.48933333 8.0196,4.49477778 C8.0148,6.11488889 8.01,7.73577778 8.022,9.35666667 C7.4112,9.345 6.8,9.34966667 6.1892,9.35433333 C6.184,7.73538889 6.1756,6.11644444 6.1936,4.49866667 M31.2396,0.953555556 C34.1596,0.936055556 37.0796,0.944222222 40,0.949666667 C39.994,1.218 39.994,1.48672222 40,1.75505556 C38.6916,1.76672222 37.3828,1.75544444 36.0752,1.76088889 C36.0728,5.71433333 36.0752,9.66816667 36.074,13.6216111 C35.7944,13.6227778 35.5152,13.6227778 35.2364,13.6216111 C35.2348,9.66816667 35.2376,5.71433333 35.2348,1.76088889 C33.9028,1.75272222 32.5712,1.77177778 31.24,1.75116667 C31.226,1.48516667 31.226,1.21916667 31.2396,0.953555556 M28.3776,2.40644444 C27.552,4.46833333 26.7176,6.5275 25.9108,8.59561111 C27.5816,8.59211111 29.2524,8.59561111 30.9232,8.59405556 C30.1032,6.53255556 29.29,4.46794444 28.4668,2.40838889 C28.4448,2.40761111 28.4,2.40683333 28.3776,2.40644444 M28.0668,0.927888889 C28.3028,0.928277778 28.5416,0.91 28.7768,0.937611111 C30.4572,5.15783333 32.1296,9.38233333 33.7992,13.6076111 C33.5112,13.6157778 33.2116,13.6566111 32.93,13.5947778 C32.3556,12.2041111 31.8288,10.7936111 31.254,9.40294444 C29.3536,9.41811111 27.4528,9.40022222 25.552,9.41227778 C24.9992,10.8173333 24.4324,12.2177222 23.8772,13.6216111 C23.5848,13.622 23.2932,13.6239444 23.0008,13.6200556 C24.6828,9.38661111 26.386,5.16172222 28.0668,0.927888889 M17.676,0.797611111 C18.5456,0.572833333 19.4784,0.636222222 20.3264,0.916222222 C21.3108,1.23355556 22.2076,1.89038889 22.6632,2.81127778 C22.9524,3.34638889 23.0296,3.95733333 23.0468,4.5535 C22.7664,4.57022222 22.4856,4.56672222 22.2052,4.57333333 C22.2588,3.85622222 22.0332,3.12277778 21.5412,2.58105556 C20.84,1.82661111 19.7744,1.43811111 18.7384,1.46688889 C18.014,1.45638889 17.2812,1.67377778 16.706,2.10661111 C16.1616,2.49783333 15.7568,3.11655556 15.7508,3.78855556 C15.7148,4.30305556 15.8508,4.83116667 16.1548,5.25544444 C16.4752,5.6665 16.908,5.98811111 17.3952,6.1915 C18.65,6.72894444 20.0684,6.78883333 21.2992,7.39161111 C22.136,7.77622222 22.848,8.46961111 23.1324,9.338 C23.4164,10.1305556 23.3296,11.0164444 23.0016,11.7833333 C22.7924,12.2538889 22.4928,12.7011111 22.068,13.013 C21.3292,13.5858333 20.386,13.8607778 19.4528,13.923 C18.24,13.9817222 16.96,13.6667222 16.0436,12.8617222 C15.0664,12.0225 14.5976,10.7329444 14.578,9.48694444 C14.85,9.4885 15.122,9.48188889 15.394,9.47955556 C15.4048,10.4965 15.7728,11.5480556 16.5584,12.2457222 C17.2668,12.8943889 18.2688,13.1296667 19.218,13.1413333 C20.0996,13.1176111 21.0112,12.8695 21.6868,12.2986111 C22.2492,11.7720556 22.5088,10.9868889 22.4836,10.2382778 C22.468,9.61255556 22.1668,9.01094444 21.6944,8.58938889 C21.114,8.06633333 20.3364,7.82638889 19.5856,7.63738889 C18.5336,7.37255556 17.4288,7.18627778 16.4944,6.61461111 C15.9464,6.26461111 15.4524,5.79638889 15.1948,5.20061111 C14.8224,4.36605556 14.826,3.36816667 15.2552,2.55383333 C15.7504,1.6625 16.6716,1.03638889 17.676,0.797611111" id="Shape" fill="#DD1A22"></path>
                                        <path d="M12.784,5.54361111 C12.848,5.54244444 12.912,5.54477778 12.9764,5.55216667 C13.3076,5.66066667 13.6196,5.852 13.8128,6.14133333 C14.15,6.615 14.138,7.29205556 13.786,7.75444444 C13.5844,8.02744444 13.2772,8.21955556 12.9396,8.28916667 C12.8868,8.30005556 12.8344,8.31133333 12.7816,8.32105556 C12.5232,8.19038889 12.2476,8.0675 12.06,7.84272222 C11.66,7.40522222 11.6032,6.71766667 11.9052,6.21561111 C12.096,5.8905 12.4312,5.67544444 12.784,5.54361111" id="Shape" fill="#092B2C"></path>
                                    </g>
                                    <text id="133" font-family="Poppins-Light, Poppins" font-size="10" font-weight="300" fill="#FFFFFF" fill-opacity="0.6">
                                        <tspan x="28" y="47">133</tspan>
                                    </text>
                                </g>
                            </g>
                        </g>
                    </g>
                </g>
            </g>
        </g>
    </g>
</svg>