<svg width="77" height="22" viewBox="0 0 77 22" xmlns="http://www.w3.org/2000/svg">
    <title>
        by-iugo-negativo
    </title>
    <g fill="#FFF" fill-rule="evenodd" opacity=".2">
        <path d="M62.998 8.348a3.447 3.447 0 0 1 2.443-1.016c.922 0 1.794.36 2.454 1.016a3.386 3.386 0 0 1 1.022 2.416c0 1.878-1.56 3.405-3.476 3.405-1.91 0-3.462-1.527-3.462-3.405 0-.904.362-1.763 1.02-2.416m2.442 7.345c.59 0 1.19-.098 1.78-.291a4.645 4.645 0 0 0 2.933-2.851c.573-1.636.346-3.34-.623-4.676a5.057 5.057 0 0 0-4.09-2.067c-.598 0-1.203.102-1.798.302a4.657 4.657 0 0 0-2.906 2.87c-.567 1.644-.338 3.346.627 4.67.932 1.28 2.456 2.043 4.077 2.043"/>
        <path d="M39.246 15.693c2.185 0 3.832-1.609 3.832-3.742V5.985h-1.617v5.899c0 1.345-.911 2.285-2.215 2.285-1.288 0-2.187-.95-2.187-2.312V5.985h-1.618v5.966c0 2.133 1.636 3.742 3.805 3.742"/>
        <path d="M52.659 15.693c1.991 0 3.434-.895 3.448-.904l.003-.001.003-.002a.413.413 0 0 0 .145-.286c0-.54-.003-1.095-.007-1.632-.004-.622-.008-1.266-.006-1.888v-.088h-3.182v1.455h.317l.033.002h1.255v1.365l-.011.005c-.237.105-.956.424-1.957.424-1.849 0-3.353-1.528-3.353-3.406 0-1.885 1.504-3.419 3.353-3.419.78 0 1.61.327 2.271.895a.801.801 0 0 0 .052.041l.221.182.184-.19a28.17 28.17 0 0 1 .334-.343l.117-.12v.001l.46-.474-.36-.285c-1.005-.819-2.09-1.217-3.32-1.217a5.03 5.03 0 0 0-3.554 1.449 4.89 4.89 0 0 0-1.471 3.507 4.85 4.85 0 0 0 1.47 3.494 5.049 5.049 0 0 0 3.555 1.435"/>
        <path d="M30.142 5.985h-1.604v3.8l1.604-.951z"/>
        <path d="M30.142 9.644l-1.604.951v4.88h1.604z"/>
        <path d="M22.679 2.083h52.567v17.205H22.68V2.083zm-1.754 18.921H0V.322H76.975v20.682H20.925zm-12.55-9.933h.455c.465 0 .66.182.66.777v.558c0 .475-.186.63-.53.63h-.585v-1.965zm0-2.606h.492c.363 0 .52.201.52.658v.357c0 .512-.232.676-.613.676h-.4V8.465zm2.035.558c0-.988-.455-1.472-1.515-1.472H7.352v6.4H8.96c1.023 0 1.553-.53 1.553-1.518v-.521c0-.677-.214-1.152-.763-1.363v-.018c.456-.21.66-.622.66-1.28v-.228zm2.75 2.807v2.12h1.023v-2.12l1.292-4.28H14.5l-.772 2.917h-.018l-.772-2.916h-1.069l1.292 4.279z"/>
    </g>
</svg>
