<svg width="70" height="55" viewBox="0 0 70 55" xmlns="http://www.w3.org/2000/svg" xmlns:xlink="http://www.w3.org/1999/xlink">
    <title>
        channel3
    </title>
    <defs>
        <path d="M2.47 10V3.93h-.077L.6 5.23v-.928l1.875-1.348h.874V10h-.88zm4.537-3.247V6h.854c.801 0 1.368-.518 1.368-1.25 0-.718-.542-1.196-1.353-1.196-.81 0-1.343.449-1.416 1.206h-.855c.088-1.221.962-1.973 2.305-1.973 1.23 0 2.212.82 2.212 1.846 0 .84-.464 1.455-1.235 1.64v.079c.957.122 1.538.786 1.538 1.748 0 1.162-1.09 2.065-2.48 2.065-1.431 0-2.418-.796-2.481-2.002h.85c.078.752.712 1.235 1.62 1.235.928 0 1.587-.551 1.587-1.323 0-.815-.62-1.323-1.62-1.323h-.894zm7.314 3.413c-1.587 0-2.5-1.348-2.5-3.691 0-2.325.923-3.687 2.5-3.687 1.568 0 2.49 1.367 2.49 3.701 0 2.34-.908 3.677-2.49 3.677zm0-.767c1.04 0 1.607-1.035 1.607-2.924 0-1.87-.576-2.915-1.607-2.915-1.03 0-1.616 1.054-1.616 2.915 0 1.884.576 2.924 1.616 2.924z" id="a"/>
    </defs>
    <g fill="none" fill-rule="evenodd">
        <g style="mix-blend-mode:overlay">
            <rect width="70" height="55" rx="4" style="mix-blend-mode:multiply" fill="#000204"/>
            <rect stroke="#1D4B68" x=".5" y=".5" width="69" height="54" rx="3"/>
        </g>
        <path d="M34.649 18.285c0-.52-.482-.94-1.077-.94h-.225c-.594 0-1.082.42-1.082.94v6.43c0 .521.488.943 1.082.943h.225c.595 0 1.077-.422 1.077-.943v-6.43zm6.156 3.219c0 4.004-3.29 7.25-7.346 7.25-4.061 0-7.351-3.246-7.351-7.25 0-4.01 3.29-7.257 7.35-7.257 4.057 0 7.347 3.248 7.347 7.257zm2.575-7.493h-4.766l4.292 7.185L38.336 29h4.689l2.103-3.77L47.233 29H52l-4.49-7.804L51.646 14h-4.63l-1.808 3.148-1.828-3.137zM26.378 18.01h-5.164v2.041h4.132v3.998l-4.053-.037v4.981H17V14.011h9.06l.318 3.999z" fill="#FFF" fill-rule="nonzero"/>
        <g transform="translate(26 36)">
            <use fill="#000" xlink:href="#a"/>
            <use fill-opacity=".6" fill="#FFF" xlink:href="#a"/>
        </g>
    </g>
</svg>
