<svg width="44" height="11" viewBox="0 0 44 11" xmlns="http://www.w3.org/2000/svg">
    <title>
        cinecanal
    </title>
    <g fill-rule="nonzero" fill="none">
        <path fill="#C96044" d="M0 .079h44v10.843H0z"/>
        <path d="M18.76 5.54c0-2.004 0-3.93 1.92-3.93 1.2 0 1.64.904 1.6 2.515h-1.12c0-1.021-.12-1.375-.48-1.375-.64 0-.72.825-.72 2.79 0 1.924.08 2.789.72 2.789.52 0 .52-.943.52-1.533h1.16c0 2.043-.6 2.672-1.68 2.672-1.92-.04-1.92-1.964-1.92-3.929" fill="#FFF"/>
        <path d="M23.12 9.31l1.52-7.581h1.52l1.52 7.582h-1.2l-.32-1.69H24.6l-.32 1.69h-1.16zm2.2-6.128l-.52 3.3h1.12l-.6-3.3z" fill="#FFF"/>
        <path fill="#FFF" d="M28.68 9.31V1.73h1.56l1.48 5.264V1.729h1.08V9.31h-1.52l-1.52-5.54v5.54z"/>
        <path d="M33.84 9.31l1.52-7.581h1.52L38.4 9.31h-1.2l-.32-1.69h-1.56L35 9.311h-1.16zm2.2-6.128l-.56 3.26h1.12l-.56-3.26z" fill="#FFF"/>
        <path fill="#FFF" d="M39.4 9.31V1.73h1.16v6.325h1.72V9.31z"/>
        <path d="M1.68 5.5c0-2.004 0-3.89 2.12-3.89 1.32 0 1.84.904 1.76 2.515H4.32c0-1.021-.16-1.375-.52-1.375-.72 0-.8.825-.8 2.79 0 1.964.08 2.789.8 2.789.6 0 .56-.943.6-1.533h1.24C5.64 8.8 5 9.468 3.8 9.468 1.68 9.428 1.68 7.504 1.68 5.5" fill="#FFF"/>
        <path fill="#FFF" d="M6.44 1.729h1.28v7.582H6.44z"/>
        <path fill="#FFF" d="M8.8 9.31V1.73h1.72l1.64 5.225V1.729h1.2V9.31h-1.68L10 3.77v5.54z"/>
        <path fill="#FFF" d="M14.44 9.31V1.73h3.32v1.178h-2.04v1.847h1.88v1.178h-1.88v2.2h2.12v1.179z"/>
    </g>
</svg>
