<svg width="70" height="55" viewBox="0 0 70 55" xmlns="http://www.w3.org/2000/svg" xmlns:xlink="http://www.w3.org/1999/xlink">
    <title>
        señal-title
    </title>
    <defs>
        <rect id="a" width="70" height="55" rx="4"/>
    </defs>
    <g fill="none" fill-rule="evenodd">
        <g style="mix-blend-mode:overlay">
            <use fill="#000204" style="mix-blend-mode:multiply" xlink:href="#a"/>
            <rect stroke="#FFF" x=".5" y=".5" width="69" height="54" rx="4"/>
        </g>
        <text font-family="Poppins-Light, Poppins" font-size="10" font-weight="300" fill="#FFF" fill-opacity=".6">
            <tspan x="27" y="47">131</tspan>
        </text>
        <g fill-rule="nonzero">
            <path d="M44.114 19.41l.138 1.25h-.934l.796-1.25zm12.524-4.204l-2.547 9.588h-41.73l2.548-9.587 41.73-.001zM50.21 19.94l2.205-2.518h-1.978l-1.036 1.252-.583-1.251H46.97l1.2 2.442-1.985 2.27-.707-4.705h-1.693l-3.305 4.814 1.284-4.821H39.89l-1.576 1.81-.613-1.81h-1.686l-1.371 5.151h1.67l.679-2.554.686 1.833h.03l1.662-1.833-.678 2.554h3.422l.446-.692h1.788l.086.692H47.78l1.216-1.457.623 1.458h1.846L50.21 19.94zm-17.923-.582l.139-.522h2.678l.38-1.413h-4.357l-1.372 5.152h4.354l.373-1.413h-2.677l.154-.56h2.495l.329-1.243h-2.496zm-8.174 3.216h1.693l.687-2.56 1.21 2.56h1.519l1.371-5.151h-1.692l-.658 2.458-1.16-2.458h-1.598l-1.372 5.151zm.847-5.151h-1.707l-1.372 5.151h1.707l1.372-5.151zm-7.764 4.248c-.105.462.323.905.961.906H21.344l.395-1.439h-2.164c-.287.001-.53-.12-.434-.481l.348-1.306c.107-.415.474-.484.85-.484l2.005.001.387-1.444-3.526.001c-.492 0-.905.265-1.074.71l-.935 3.536z" fill="#070509"/>
            <g fill="#E4B135">
                <path d="M23.253 17.422l-1.372 5.151h1.707l1.372-5.15z"/>
                <path d="M28.9 17.422l-.656 2.458-1.161-2.458h-1.598l-1.372 5.152h1.693l.687-2.561 1.21 2.56h1.519l1.371-5.15z"/>
                <path d="M19.14 20.656l.349-1.306c.106-.415.474-.484.85-.483h2.005l.387-1.444-3.526.002c-.492 0-.905.264-1.074.709l-.935 3.536c-.105.462.323.906.961.907H21.344l.394-1.439h-2.164c-.286 0-.529-.12-.434-.482z"/>
                <path d="M31.959 20.602h2.495l.328-1.244h-2.495l.138-.523h2.679l.379-1.413h-4.356l-1.373 5.152h4.354l.374-1.414h-2.677z"/>
                <path d="M50.437 17.422L49.4 18.673l-.583-1.25-1.846-.001 1.2 2.443-1.985 2.269-.707-4.704h-1.693l-3.305 4.813 1.284-4.82-1.876-.001-1.576 1.81-.613-1.81h-1.685l-1.372 5.152h1.67l.68-2.554.685 1.833h.03l1.663-1.833-.678 2.553h3.422l.445-.691h1.789l.086.692h3.343l1.216-1.457.623 1.457h1.846l-1.253-2.635 2.205-2.517h-1.978zm-7.119 3.238l.796-1.25.138 1.25h-.934z"/>
            </g>
        </g>
    </g>
</svg>
