<svg width="27" height="6" viewBox="0 0 27 6" xmlns="http://www.w3.org/2000/svg">
    <title>
        2292
    </title>
    <g fill-rule="nonzero" fill="none">
        <path d="M19.468 2.646l.083.75h-.56l.477-.75zM26.983.123l-1.528 5.753H.417L1.945.125h25.038zm-3.857 2.84l1.323-1.51h-1.187l-.622.751-.35-.75h-1.107l.72 1.465-1.191 1.362-.424-2.823h-1.016l-1.983 2.888.77-2.892h-1.125l-.946 1.086-.368-1.087h-1.01l-.824 3.092h1.002l.408-1.533.411 1.1h.018l.998-1.1-.407 1.532h2.053l.267-.415h1.073l.052.416h2.006l.73-.875.374.875h1.107l-.752-1.581zm-10.754-.348l.083-.314h1.607l.228-.847h-2.614l-.823 3.09h2.612l.224-.847h-1.606l.092-.335h1.497l.198-.747h-1.498zm-4.904 1.93h1.016l.412-1.537.726 1.537h.911l.823-3.091H10.34l-.394 1.474-.696-1.474h-.96l-.822 3.09zm.508-3.091H6.952l-.823 3.09h1.024l.823-3.09zM3.318 4.002c-.063.278.193.544.576.544h1.912l.237-.863H4.745c-.172 0-.318-.072-.26-.289l.208-.783c.065-.25.285-.29.51-.29h1.203l.232-.866H4.523a.665.665 0 0 0-.644.426l-.561 2.121z" fill="#070509"/>
        <g fill="#E4B135">
            <path d="M6.952 1.453l-.823 3.091h1.024l.823-3.09z"/>
            <path d="M10.34 1.453l-.394 1.475-.696-1.475H8.29l-.823 3.091h1.016l.412-1.536.726 1.536h.911l.823-3.09z"/>
            <path d="M4.484 3.394l.21-.784c.063-.249.284-.29.51-.29h1.202l.232-.866H4.523a.665.665 0 0 0-.644.426l-.562 2.122c-.063.277.194.543.577.544h1.912l.237-.863H4.745c-.172 0-.318-.072-.26-.29z"/>
            <path d="M12.175 3.36h1.497l.197-.745h-1.497l.083-.314h1.607l.228-.848h-2.614l-.823 3.091h2.612l.224-.848h-1.606z"/>
            <path d="M23.262 1.453l-.622.751-.35-.75h-1.108l.72 1.465-1.19 1.361-.425-2.822h-1.015l-1.984 2.888.77-2.893h-1.124l-.946 1.087-.368-1.087H14.61l-.823 3.091h1.002l.408-1.532.41 1.1h.019l.997-1.1-.406 1.532h2.053l.267-.415h1.073l.052.415h2.006l.73-.874.373.875h1.108l-.752-1.582 1.323-1.51h-1.187zm-4.27 1.943l.476-.75.083.75h-.56z"/>
        </g>
    </g>
</svg>
