<svg width="70" height="55" viewBox="0 0 70 55" xmlns="http://www.w3.org/2000/svg" xmlns:xlink="http://www.w3.org/1999/xlink">
    <title>
        señal-title
    </title>
    <defs>
        <rect id="a" width="70" height="55" rx="4"/>
    </defs>
    <g fill="none" fill-rule="evenodd">
        <g style="mix-blend-mode:overlay">
            <use fill="#000204" style="mix-blend-mode:multiply" xlink:href="#a"/>
        </g>
        <path d="M46.018 18.402c2.033-.769 4.46.933 4.366 3.116.116 2.027-1.988 3.753-3.96 3.271-1.836-.314-3.083-2.363-2.531-4.143a3.325 3.325 0 0 1 2.125-2.244M32.501 23.28c-.002.866-.002 1.735 0 2.604.696-.012 1.394.034 2.086-.06 1.009-.397.954-2.09-.012-2.489-.689-.091-1.384-.049-2.073-.055m4.881-1.643c.503.302.951.683 1.348 1.119-.089-.716-.101-1.436-.055-2.152-.411.369-.844.71-1.293 1.033m8.934-4.196c-2.268.384-3.848 2.866-3.265 5.086.515 2.238 3.122 3.701 5.299 2.93 1.966-.629 3.095-2.912 2.64-4.882-.414-2.051-2.597-3.582-4.674-3.134m-13.816 2.345c.873 0 2.248.384 2.68-.692.382-.686.082-1.626-.586-1.8-.667-.175-1.37-.069-2.093-.069-.004.853-.004 1.707 0 2.561zm-4.689-6.522c2.466.018 4.936-.043 7.403.024 2.25.08 4.147 2.061 4.195 4.306 2.19-4.376 8.407-5.726 12.288-2.808 3.83 2.647 4.385 8.629 1.366 12.093-2.336 2.899-6.729 3.713-10.016 2.027-1.588-.777-2.826-2.128-3.653-3.674.122 2.08-1.341 4.19-3.503 4.36-2.69.138-5.391.027-8.083.052.01-5.461 0-10.922.003-16.38m-12.806-.04h4.65v6.251h2.781c.003-2.085 0-4.168 0-6.25h4.69c.003 5.476 0 10.949 0 16.425-1.561.003-3.123 0-4.687.003-.006-2.159 0-4.32 0-6.48-.93-.002-1.857-.002-2.784 0 0 2.16.003 4.321-.003 6.48-1.552-.006-3.101.009-4.653-.012.015-5.473 0-10.943.006-16.416" fill="#E93630" fill-rule="nonzero"/>
        <text font-family="Poppins-Light, Poppins" font-size="10" font-weight="300" fill="#FFF" fill-opacity=".6">
            <tspan x="26" y="47">132</tspan>
        </text>
    </g>
</svg>
