<svg width="95" height="22" viewBox="0 0 95 22" xmlns="http://www.w3.org/2000/svg" xmlns:xlink="http://www.w3.org/1999/xlink">
    <title>
        logoMC-golive-negativo-BIG
    </title>
    <defs>
        <path id="a" d="M0 21.939h94.94V0H0z"/>
    </defs>
    <g fill="none" fill-rule="evenodd">
        <path d="M40.575 14.964a5.104 5.104 0 0 1-1.8 1.985 4.58 4.58 0 0 1-2.51.727 4.644 4.644 0 0 1-2.523-.727 5.363 5.363 0 0 1-1.853-1.985c-.465-.837-.697-1.768-.697-2.791a5.69 5.69 0 0 1 .683-2.765 5.133 5.133 0 0 1 1.853-1.971 4.777 4.777 0 0 1 2.537-.715c.91 0 1.748.238 2.51.715a5.01 5.01 0 0 1 1.8 1.97c.438.839.658 1.76.658 2.766 0 1.023-.22 1.954-.658 2.791m4.298-7.686c-.867-1.446-2.06-2.584-3.575-3.413-1.516-.83-3.21-1.244-5.086-1.244-1.875 0-3.57.415-5.086 1.244-1.516.829-2.707 1.967-3.574 3.413-.868 1.446-1.301 3.07-1.301 4.868 0 1.817.433 3.462 1.3 4.935a9.274 9.274 0 0 0 3.575 3.466c1.516.838 3.211 1.257 5.086 1.257 1.875 0 3.57-.424 5.086-1.27a9.405 9.405 0 0 0 3.575-3.466c.867-1.464 1.301-3.105 1.301-4.922 0-1.799-.434-3.422-1.301-4.868" fill="#FFF"/>
        <path d="M53.038 16.838c0 .393.082.698.247.915.164.218.482.326.955.326.288 0 .637-.03 1.049-.093l.154 3.414a9.334 9.334 0 0 1-1.403.295c-.524.072-1.064.109-1.619.109-.822 0-1.51-.124-2.066-.373-.555-.248-.997-.579-1.326-.993a3.876 3.876 0 0 1-.709-1.412 6.156 6.156 0 0 1-.216-1.63V2.89h4.934v13.948z" fill="#FC3F3F"/>
        <mask id="b" fill="#fff">
            <use xlink:href="#a"/>
        </mask>
        <path d="M57.601 21.494h4.933V6.284h-4.933v15.21zm-.308-18.7c0-.787.257-1.449.77-1.987C58.578.269 59.246 0 60.069 0c.822 0 1.49.27 2.004.807.513.538.77 1.2.77 1.987 0 .786-.257 1.448-.77 1.986-.514.538-1.182.807-2.004.807-.823 0-1.49-.269-2.004-.807s-.771-1.2-.771-1.986z" fill="#FC3F3F" mask="url(#b)"/>
        <path fill="#FC3F3F" mask="url(#b)" d="M69.595 21.493L64.354 6.285h4.964l2.898 10.677 2.898-10.677h4.965l-5.242 15.208z"/>
        <path d="M88.373 9.14c-.782 0-1.383.254-1.804.76-.421.508-.632 1.206-.632 2.096h4.378c.041-.166.062-.342.062-.528 0-.662-.175-1.215-.524-1.66-.35-.445-.843-.668-1.48-.668m.154-3.166c1.973 0 3.535.585 4.687 1.754 1.15 1.17 1.726 2.789 1.726 4.857 0 .787-.092 1.625-.277 2.515h-8.757c.041.93.355 1.681.94 2.25.586.57 1.485.853 2.698.853.74 0 1.516-.067 2.328-.201.812-.135 1.516-.336 2.113-.606l.616 3.197c-.781.394-1.66.694-2.636.9-.977.207-1.989.31-3.037.31-1.316 0-2.478-.19-3.484-.573-1.008-.383-1.85-.916-2.529-1.599a6.708 6.708 0 0 1-1.541-2.452c-.35-.951-.525-2.007-.525-3.166 0-1.241.18-2.359.54-3.352.36-.993.873-1.836 1.542-2.53a6.744 6.744 0 0 1 2.42-1.598c.945-.372 2.004-.559 3.176-.559" fill="#FC3F3F" mask="url(#b)"/>
        <path d="M14.865 9.587L4.855 3.126a3.18 3.18 0 0 0-1.718-.505A3.105 3.105 0 0 0 .5 4.063 3.132 3.132 0 0 0 0 5.803v12.955c0 1.741 1.396 3.18 3.16 3.18.598 0 1.197-.167 1.696-.501l10.009-6.494c1.463-.938 1.895-2.912.964-4.386a3.319 3.319 0 0 0-.964-.97" fill="#FC3F3F" mask="url(#b)"/>
        <path d="M20.974 11.991h-1.468v3.74h1.468v1.046c-1.192.6-2.252.9-3.18.9a5.17 5.17 0 0 1-2.681-.715 5.075 5.075 0 0 1-.871-.65L10.256 18.9a9.423 9.423 0 0 0 2.163 1.648c1.498.838 3.176 1.257 5.033 1.257 1.279 0 2.633-.225 4.061-.675 1.428-.45 2.633-1.036 3.614-1.76v-7.381h-4.153v.003z" fill="#FFF" mask="url(#b)"/>
        <path d="M14.152 8.162c.28-.275.59-.518.934-.725.789-.477 1.674-.715 2.655-.715.841 0 1.695.185 2.563.556.867.37 1.634.873 2.3 1.508L25.337 5.4c-.946-.846-2.102-1.521-3.47-2.024-1.366-.502-2.733-.754-4.1-.754-1.91 0-3.64.415-5.19 1.244a9.611 9.611 0 0 0-2.36 1.757l3.935 2.54z" fill="#FFF" mask="url(#b)"/>
        <path fill="#FFF" mask="url(#b)" d="M7.052 9.827h1.372l-.943 4.892H6.365l.61-3.14-1.774 2.651H4.39l-.742-2.658-.61 3.147H1.922l.943-4.892H4.23l.86 2.896z"/>
        <path d="M12.528 9.977c.337.151.614.357.831.618l-.831.893a1.6 1.6 0 0 0-.513-.478 1.225 1.225 0 0 0-.624-.178c-.264 0-.509.069-.735.206a1.49 1.49 0 0 0-.537.562 1.584 1.584 0 0 0-.198.781c0 .242.051.46.153.656a1.135 1.135 0 0 0 1.033.628c.198 0 .412-.051.64-.153.23-.103.439-.242.628-.42l.659.803a3.405 3.405 0 0 1-1.005.667 2.753 2.753 0 0 1-1.102.247c-.449 0-.849-.1-1.2-.3a2.109 2.109 0 0 1-.818-.827 2.417 2.417 0 0 1-.29-1.19c0-.51.126-.976.38-1.395.254-.418.601-.748 1.04-.987.44-.24.92-.36 1.442-.36.36 0 .71.076 1.047.227" fill="#FFF" mask="url(#b)"/>
    </g>
</svg>
