<svg width="86" height="28" viewBox="0 0 86 28" xmlns="http://www.w3.org/2000/svg">
    <title>
        logoMC-positivo-sm
    </title>
    <g fill="#FFF" fill-rule="evenodd">
        <path d="M7.627 17.15l-.782 2.749c-.306 1.084-.644 2.536-.935 3.786h-.046a49.96 49.96 0 0 0-.815-3.757l-.675-2.778H.646L0 27.444h2.548l.17-3.696c.046-1.16.092-2.686.151-4.14h.033c.245 1.404.554 2.934.83 4.032l.86 3.59h2.16l1.03-3.59c.338-1.13.766-2.672 1.089-4.032h.046c0 1.604.014 2.98.062 4.14l.121 3.696h2.686l-.522-10.294H7.627z"/>
        <path d="M17.433 26.527c-2.119 0-3.315-1.97-3.315-4.184 0-2.246 1.105-4.293 3.329-4.293 2.226 0 3.3 2.139 3.3 4.2 0 2.338-1.197 4.277-3.314 4.277m.061-9.56c-2.762 0-4.787 2.138-4.787 5.407 0 3.115 1.902 5.239 4.648 5.239 2.639 0 4.803-1.895 4.803-5.422 0-3.07-1.825-5.225-4.664-5.225"/>
        <path d="M32.042 18.28h3.145v9.164h1.35v-9.163h3.16V17.15h-7.655z"/>
        <path d="M41.8 22.617h4.004v-1.099h-4.003v-3.252h4.249V17.15h-5.602v10.294h5.833v-1.115H41.8z"/>
        <path d="M52.464 18.096c.86 0 1.58.184 2.073.428l.337-1.084c-.352-.184-1.183-.458-2.456-.458-3.208 0-5.402 2.17-5.402 5.406 0 3.392 2.18 5.225 5.094 5.225 1.259 0 2.257-.245 2.733-.49l-.262-1.069c-.536.26-1.365.427-2.193.427-2.502 0-3.96-1.604-3.96-4.137 0-2.705 1.612-4.248 4.036-4.248"/>
        <path d="M58.157 23.167l1.01-2.979c.217-.624.37-1.265.525-1.862h.03c.152.597.306 1.206.536 1.878l1.029 2.963h-3.13zm.798-6.017l-3.53 10.294h1.379l1.075-3.238h3.67l1.104 3.238h1.426L60.551 17.15h-1.596z"/>
        <path d="M67.67 26.496c-.476 0-.842-.014-1.12-.06V22.51h1.104c1.456 0 2.67.598 2.67 1.985 0 1.497-1.273 2.001-2.654 2.001zm-1.12-8.308c.214-.046.567-.092 1.182-.092 1.348 0 2.255.491 2.255 1.68 0 .993-.828 1.742-2.224 1.742H66.55v-3.33zm3.053 3.757v-.046c1.075-.38 1.75-1.252 1.75-2.26 0-.81-.34-1.42-.877-1.817-.627-.52-1.484-.748-2.822-.748-.92 0-1.857.09-2.44.228v10.11c.447.06 1.153.123 2.073.123 1.687 0 2.854-.305 3.56-.962.536-.488.887-1.175.887-2.063 0-1.526-1.15-2.334-2.13-2.565z"/>
        <path d="M74.484 17.15h-1.352v10.294h5.77v-1.115h-4.418z"/>
        <path d="M81.343 26.329v-3.712h4.004v-1.099h-4.004v-3.252h4.249V17.15H79.99v10.294h5.83v-1.115z"/>
        <path d="M23.66 27.203V17.131h1.44l3.227 5.096c.737 1.18 1.337 2.24 1.802 3.273l.045-.014c-.12-1.345-.15-2.572-.15-4.141V17.13h1.231v10.072h-1.32l-3.212-5.11c-.707-1.122-1.382-2.272-1.877-3.364l-.045.014c.075 1.272.09 2.483.09 4.157v4.303H23.66z"/>
        <path d="M42.703 5.985C42.423 2.702 41.222.74 41.222.74 36.292-.497 19.518.154 18.069.313c-1.45.158-1.674.665-1.674.665-1.045 8.868 1.212 11.952 1.212 11.952 1.162.47 4.383.464 4.383.464s.18.206.572.516c.04.03.082.058.123.092.002 0 .004.004.006.005a9.756 9.756 0 0 0 1.925 1.125l-.002-.011c.854.386 1.934.757 3.27 1.025l.006.007c.44.086.71.12.71.12-.97-1.616-.18-2.886-.18-2.886.329.039 11.382-.328 12.444-.506 1.062-.18 1.883-.705 1.883-.705.42-1.098.238-2.912-.044-6.191"/>
    </g>
</svg>
