<svg width="70" height="55" viewBox="0 0 70 55" xmlns="http://www.w3.org/2000/svg" xmlns:xlink="http://www.w3.org/1999/xlink">
    <title>
        señal-title
    </title>
    <defs>
        <rect id="a" width="70" height="55" rx="4"/>
    </defs>
    <g fill="none" fill-rule="evenodd">
        <g style="mix-blend-mode:overlay">
            <use fill="#000204" style="mix-blend-mode:multiply" xlink:href="#a"/>
        </g>
        <g fill-rule="nonzero">
            <path d="M26.281 21.416c.22-.576.874-.965 1.503-.872-.353.131-.688.346-.879.672a1.395 1.395 0 0 0 .155 1.627c.188.225.463.348.722.478-.352.014-.716-.055-1.002-.264a1.378 1.378 0 0 1-.499-1.641m-5.768-6.182a7.248 7.248 0 0 1 4.549.492 6.99 6.99 0 0 1 3.354 3.24c-.944-.235-1.972.004-2.734.585a4.437 4.437 0 0 0-2.164-1.633 4.49 4.49 0 0 0-3.351.174 4.314 4.314 0 0 0-2.27 2.507 4.098 4.098 0 0 0-.134 2.154c.23 1.156.987 2.2 2.023 2.807.858.512 1.9.715 2.894.574a4.391 4.391 0 0 0 3-1.835c.56.412 1.25.682 1.96.668.26.007.516-.03.77-.074a6.978 6.978 0 0 1-3.69 3.378 7.247 7.247 0 0 1-4.482.28 7.062 7.062 0 0 1-3.922-2.638 6.7 6.7 0 0 1-1.306-4.327c.074-1.646.796-3.254 1.98-4.43a7.095 7.095 0 0 1 3.523-1.922" fill="#00AAAD"/>
            <path d="M27.976 20.552c.843-.146 1.665.62 1.6 1.439-.01.792-.833 1.453-1.637 1.299a1.41 1.41 0 0 0 .847-.535c.352-.463.364-1.14.026-1.613-.192-.29-.504-.481-.836-.59M21.194 19.5c.608-.017 1.217-.01 1.826-.004-.005 1.62-.01 3.24.002 4.862a68.557 68.557 0 0 0-1.833-.003c-.005-1.619-.013-3.238.005-4.855m25.046-3.545c2.92-.018 5.84-.01 8.76-.004a18.02 18.02 0 0 0 0 .805c-1.308.012-2.617 0-3.925.006-.002 3.953 0 7.907-.001 11.86-.28.002-.559.002-.838 0-.001-3.953.002-7.907-.001-11.86-1.332-.008-2.664.01-3.995-.01a7.689 7.689 0 0 1 0-.797m-2.862 1.452c-.826 2.062-1.66 4.121-2.467 6.19 1.67-.004 3.341 0 5.012-.002-.82-2.061-1.633-4.126-2.456-6.186l-.09-.002m-.31-1.478c.236 0 .475-.018.71.01 1.68 4.22 3.353 8.444 5.022 12.67-.288.008-.587.049-.869-.013-.574-1.39-1.101-2.801-1.676-4.192-1.9.015-3.801-.003-5.702.01-.553 1.404-1.12 2.805-1.675 4.209-.292 0-.584.002-.876-.002 1.682-4.233 3.385-8.458 5.066-12.692m-10.391-.13c.87-.225 1.802-.162 2.65.118.985.318 1.882.974 2.337 1.895.29.535.367 1.146.384 1.742-.28.017-.561.014-.842.02a2.673 2.673 0 0 0-.664-1.992c-.701-.754-1.767-1.143-2.803-1.114-.724-.01-1.457.207-2.032.64-.544.39-.95 1.01-.955 1.682a2.26 2.26 0 0 0 .404 1.466c.32.411.753.733 1.24.936 1.255.538 2.673.598 3.904 1.2.837.385 1.549 1.079 1.833 1.947.284.793.198 1.678-.13 2.445-.21.47-.51.918-.934 1.23-.739.573-1.682.848-2.615.91-1.213.059-2.493-.256-3.41-1.061-.977-.84-1.445-2.13-1.465-3.375.272.001.544-.005.816-.007.01 1.016.379 2.068 1.164 2.766.709.648 1.71.884 2.66.895.882-.023 1.793-.272 2.469-.842.562-.527.822-1.312.797-2.06-.016-.626-.317-1.228-.79-1.65-.58-.523-1.358-.763-2.108-.952-1.052-.264-2.157-.45-3.092-1.022-.548-.35-1.042-.819-1.3-1.414-.372-.835-.368-1.833.061-2.647.495-.892 1.417-1.518 2.421-1.756" fill="#DD1A22"/>
            <path d="M27.784 20.544c.064-.002.128 0 .192.008.332.109.644.3.837.59.337.473.325 1.15-.027 1.612a1.412 1.412 0 0 1-.846.535l-.158.032c-.259-.13-.534-.254-.722-.478a1.395 1.395 0 0 1-.155-1.627c.191-.326.526-.54.879-.672" fill="#092B2C"/>
        </g>
        <text font-family="Poppins-Light, Poppins" font-size="10" font-weight="300" fill="#FFF" fill-opacity=".6">
            <tspan x="28" y="47">133</tspan>
        </text>
    </g>
</svg>
