<?xml version="1.0" encoding="UTF-8"?><!DOCTYPE svg PUBLIC "-//W3C//DTD SVG 1.1//EN" "http://www.w3.org/Graphics/SVG/1.1/DTD/svg11.dtd"><svg xmlns="http://www.w3.org/2000/svg"><symbol id="icon-arrows" viewBox="0 0 6 10">
    <path d="M6 3H0l3-3 3 3zm-.1 4L3 9.9.1 7h5.8z" fill-rule="evenodd"/>
</symbol><symbol id="icon-ava" viewBox="0 0 27 27">
    <title>
        avatar-default
    </title>
    <g fill-rule="nonzero">
        <path d="M13.5 26.5c-7.18 0-13-5.82-13-13s5.82-13 13-13 13 5.82 13 13-5.82 13-13 13zm0-1c6.627 0 12-5.373 12-12s-5.373-12-12-12-12 5.373-12 12 5.373 12 12 12z"/>
        <path d="M15.475 11.555a.5.5 0 0 1-.95-.31c.332-1.018 1.014-1.578 1.975-1.578.96 0 1.643.56 1.975 1.578a.5.5 0 0 1-.95.31c-.205-.627-.523-.888-1.025-.888-.502 0-.82.261-1.025.888z"/>
        <path d="M9.474 11.558a.5.5 0 1 1-.948-.316c.334-1 1.016-1.55 1.974-1.55s1.64.55 1.974 1.55a.5.5 0 0 1-.948.316c-.204-.61-.522-.866-1.026-.866s-.822.255-1.026.866z"/>
        <path d="M12 15h3v.5a1.5 1.5 0 0 1-3 0V15z"/>
    </g>
</symbol><symbol id="icon-back" viewBox="0 0 16 10">
    <path d="M7 3h9v4H7v3L0 5l7-5v3z" fill-rule="evenodd"/>
</symbol><symbol id="icon-chevron" viewBox="0 0 320 192">
    <path d="M300.6 0L320 20.7 160 192 0 20.7 19.3 0 160 150.5z"/>
</symbol><symbol id="icon-chromecast" viewBox="0 0 12 10">
    <g fill-rule="evenodd">
        <path d="M2.735 9.973a.488.488 0 0 1-.477-.498 1.89 1.89 0 0 0-.522-1.315 1.732 1.732 0 0 0-1.26-.545A.488.488 0 0 1 0 7.117c0-.275.213-.498.477-.498.73 0 1.417.297 1.933.837.517.54.801 1.257.801 2.02a.488.488 0 0 1-.476.497z"/>
        <path d="M4.992 9.973a.488.488 0 0 1-.477-.498c0-1.127-.42-2.186-1.182-2.983A3.928 3.928 0 0 0 .477 5.256.488.488 0 0 1 0 4.758c0-.275.213-.498.477-.498 1.333 0 2.587.543 3.53 1.528a5.3 5.3 0 0 1 1.462 3.687.488.488 0 0 1-.477.498zM.6 9.972a.59.59 0 0 1-.422-.183.642.642 0 0 1 0-.88.59.59 0 0 1 .422-.184c.156 0 .31.067.42.183a.642.642 0 0 1 0 .88.588.588 0 0 1-.42.183z"/>
        <path d="M11.578 9.707H6.254a.431.431 0 0 1-.422-.44c0-.244.189-.441.422-.441h4.903V.88H.843v2.423c0 .243-.188.44-.421.44A.431.431 0 0 1 0 3.304V.44c0-.244.189-.441.422-.441h11.156c.233 0 .422.197.422.44v8.828c0 .243-.189.44-.422.44z"/>
    </g>
</symbol><symbol id="icon-close-x" viewBox="0 0 16 16">
    <path d="M7.571 6.864L14.29.146a.5.5 0 0 1 .707.708L8.278 7.57l6.718 6.718a.5.5 0 0 1-.707.707L7.57 8.278.854 14.996a.5.5 0 1 1-.708-.707L6.864 7.57.146.854A.5.5 0 1 1 .854.146L7.57 6.864z" fill-rule="evenodd"/>
</symbol><symbol id="icon-close" viewBox="0 0 16 16">
    <g fill-rule="nonzero">
        <path d="M8 1a7 7 0 1 0 0 14A7 7 0 0 0 8 1zm0-1a8 8 0 1 1 0 16A8 8 0 0 1 8 0z"/>
        <path d="M8.121 7.414L9.89 5.646a.5.5 0 0 1 .707.708L8.828 8.12l1.768 1.768a.5.5 0 0 1-.707.707L8.121 8.828l-1.767 1.768a.5.5 0 0 1-.708-.707l1.768-1.768-1.768-1.767a.5.5 0 1 1 .708-.708L8.12 7.414z"/>
    </g>
</symbol><symbol id="icon-copy" viewBox="0 0 11 13">
    <g fill-rule="evenodd">
        <rect width="8" height="10" rx="1"/>
        <path d="M9 3h1a1 1 0 0 1 1 1v8a1 1 0 0 1-1 1H4a1 1 0 0 1-1-1v-1h5a1 1 0 0 0 1-1V3z"/>
    </g>
</symbol><symbol id="icon-delete" viewBox="0 0 40 43">
    <title>
        delete
    </title>
    <g fill-rule="nonzero">
        <path d="M5.032 7.474l1.498-.092 2.001 32.84c0 .228.19.418.418.418h22.348c.228 0 .418-.19.42-.464l2-32.794 1.497.092-1.999 32.748a1.921 1.921 0 0 1-1.918 1.918H8.949c-1.056 0-1.918-.861-1.917-1.872l-2-32.794z"/>
        <path d="M13.75 17a.75.75 0 1 1 1.5 0v14a.75.75 0 1 1-1.5 0V17z"/>
        <path d="M23.75 17a.75.75 0 1 1 1.5 0v14a.75.75 0 1 1-1.5 0V17z"/>
        <path d="M18.75 15a.75.75 0 1 1 1.5 0v18a.75.75 0 1 1-1.5 0V15z"/>
        <path d="M1 7.75a.75.75 0 0 1 0-1.5h38a.75.75 0 1 1 0 1.5H1z"/>
        <path d="M14.203 6.287h-1.5v-3.71c0-1.042.85-1.892 1.892-1.892H25.44c1.042 0 1.892.85 1.892 1.892v3.71h-1.5v-3.71a.396.396 0 0 0-.392-.392H14.595a.396.396 0 0 0-.392.392v3.71z"/>
    </g>
</symbol><symbol id="icon-done" viewBox="0 0 16 16">
    <title>
        done
    </title>
    <g fill-rule="nonzero">
        <path d="M8 1a7 7 0 1 0 0 14A7 7 0 0 0 8 1zm0-1a8 8 0 1 1 0 16A8 8 0 0 1 8 0z"/>
        <path d="M10.62 5.586a.5.5 0 0 1 .767.642L7.372 11.03a.5.5 0 0 1-.737.034L5.003 9.442a.5.5 0 0 1 .706-.71l1.245 1.24 3.665-4.386z"/>
    </g>
</symbol><symbol id="icon-fb" viewBox="0 0 27.5 27.6">
    <path d="M13.2 27.2H2.9c-1.4 0-2.5-1.1-2.5-2.5V2.9C.4 1.5 1.5.4 2.9.4h21.8c1.4 0 2.5 1.1 2.5 2.5v21.9c0 1.4-1.1 2.5-2.5 2.5h-7.1v-8.6H21l.6-4.1-3.9-.1v-3.2s0-1.3 1.7-1.3h2.2l.1-3.8h-2c-.6 0-1.2-.1-1.7 0-.6.1-1.1.2-1.6.4-.3.1-.6.2-.9.4-.2.2-.5.4-.7.6-.2.2-.4.4-.6.7-.1.3-.3.6-.4.9-.1.4-.2.7-.3 1.1 0 .5-.1.9-.1 1.3v3H9.8l-.1 4.1h3.6l-.1 8.5" stroke-width=".7" stroke-linecap="round" stroke-linejoin="round"/>
</symbol><symbol id="icon-fullscreen" viewBox="0 0 12 12">
    <g fill-rule="nonzero">
        <path d="M4.5 3.77V1.975a.5.5 0 0 1 1 0v3a.5.5 0 0 1-.5.5H2a.5.5 0 1 1 0-1h1.79L.149.855a.5.5 0 0 1 .704-.71L4.5 3.77z"/>
        <path d="M7 7.705V9.5a.5.5 0 1 1-1 0v-3a.5.5 0 0 1 .5-.5h3a.5.5 0 0 1 0 1H7.71l3.642 3.62a.5.5 0 1 1-.704.71L7 7.705z"/>
    </g>
</symbol><symbol id="icon-heart" viewBox="0 0 22 20">
    <path d="M6 0C4.5 0 2.9.5 1.8 1.7c-2.3 2.4-2.3 6.1 0 8.5L11 20l9.2-9.8c2.3-2.4 2.3-6.1 0-8.5-2.3-2.3-6.2-2.3-8.5 0l-.8.8-.8-.8C9.1.5 7.5 0 6 0z"/>
</symbol><symbol id="icon-ig" viewBox="0 0 26 26">
    <g stroke-width="1.2" fill-rule="evenodd" opacity=".6" stroke-linecap="round" stroke-linejoin="round">
        <path d="M25.4 19.24A5.76 5.76 0 0 1 19.64 25H7.16a5.76 5.76 0 0 1-5.76-5.76V6.76A5.76 5.76 0 0 1 7.16 1h12.48a5.76 5.76 0 0 1 5.76 5.76v12.48z"/>
        <path d="M19.4 13a6 6 0 1 1-12 0 6 6 0 0 1 12 0z"/>
        <path d="M20.6 4a.6.6 0 1 1-1.2 0 .6.6 0 0 1 1.2 0z"/>
    </g>
</symbol><symbol id="icon-money" viewBox="0 0 7 11">
    <path d="M6.402 6.765c0 .601-.22 1.116-.66 1.546-.44.429-1.074.694-1.903.797v1.232h-1.1V9.141a5.985 5.985 0 0 1-1.551-.286C.697 8.694.301 8.495 0 8.261l.605-1.342c.279.205.605.378.979.517.374.14.759.227 1.155.264V5.863a8.298 8.298 0 0 1-1.32-.418c-.36-.154-.66-.38-.902-.677-.242-.297-.363-.69-.363-1.182 0-.609.222-1.131.666-1.568.443-.436 1.083-.702 1.919-.797V0h1.1v1.199c.902.073 1.646.297 2.233.671l-.55 1.353a4.374 4.374 0 0 0-1.683-.572v1.87c.513.117.948.251 1.303.401.356.15.655.374.897.671.242.298.363.688.363 1.172zM1.925 3.498c0 .183.07.334.209.451.14.117.341.216.605.297V2.684c-.279.066-.484.17-.616.313a.715.715 0 0 0-.198.501zm1.914 4.158c.264-.059.462-.154.594-.286a.646.646 0 0 0 .198-.473.57.57 0 0 0-.204-.451c-.135-.117-.331-.22-.588-.308v1.518z" fill-rule="evenodd"/>
</symbol><symbol id="icon-next" viewBox="0 0 166.2 285">
    <path d="M23.7 285c2.5 0 4.7-.9 6.6-2.8l133-133.1c1.9-1.9 2.9-4.1 2.9-6.6s-1-4.7-2.9-6.6l-133-133C28.4 1 26.2 0 23.7 0s-4.7.9-6.6 2.9L2.9 17.1C1 19 0 21.2 0 23.7s1 4.7 2.9 6.6l112.2 112.2L2.9 254.6C1 256.5 0 258.7 0 261.2s1 4.7 2.9 6.6l14.2 14.3c1.9 1.9 4.1 2.8 6.6 2.9z"/>
</symbol><symbol id="icon-pause" viewBox="0 0 10 10">
    <path d="M0 0h3.571v10H0V0zm6.429 0H10v10H6.429V0z" fill-rule="evenodd"/>
</symbol><symbol id="icon-pencil" viewBox="0 0 18 16">
    <title>
        pencil
    </title>
    <path d="M3.653 11.544L2.401 14.29l3.145-.882 9.103-8.655-1.862-1.893-9.134 8.684zm12.422-6.767l-10.02 9.527L.6 15.834l2.184-4.793.11-.155 9.917-9.428 3.265 3.32zM12.097 2.16l1.84-1.872 3.264 3.32-1.84 1.871-3.264-3.32zm3.265 1.893l.437-.445-1.861-1.894-.438.446 1.862 1.893z" fill-rule="nonzero"/>
</symbol><symbol id="icon-play" viewBox="0 0 7 10">
    <path d="M7 5l-7 5V0z" fill-rule="evenodd"/>
</symbol><symbol id="icon-prev" viewBox="0 0 166.2 285">
    <path d="M149.1 282.1l14.2-14.3c1.9-1.9 2.9-4.1 2.9-6.6s-1-4.7-2.9-6.6L51.1 142.5 163.3 30.3c1.9-1.9 2.9-4.1 2.9-6.6s-1-4.7-2.9-6.6L149.1 2.9C147.2.9 145 0 142.5 0s-4.7 1-6.6 2.9l-133 133C1 137.8 0 140 0 142.5s1 4.7 2.9 6.6l133 133.1c1.9 1.9 4.1 2.8 6.6 2.8 2.5-.1 4.7-1 6.6-2.9z"/>
</symbol><symbol id="icon-proximas" viewBox="0 0 13 10">
    <path d="M0 0h13v2.308H0V0zm0 3.846h9.75v2.308H0V3.846zm0 3.846h5.688V10H0V7.692z" fill-rule="evenodd"/>
</symbol><symbol id="icon-record" viewBox="0 0 13 13">
    <g fill-rule="nonzero">
        <path d="M6.4.8C3.703.8 1.361 2.752.893 5.373c-.93 5.02 5.23 8.588 9.147 5.323C13.884 7.414 11.493.8 6.4.8zm0-.8c5.84 0 8.567 7.542 4.156 11.307C6.061 15.053-.96 10.987.106 5.23.642 2.229 3.316 0 6.4 0z"/>
        <path d="M6.4 2.8c2 0 3.6 1.6 3.6 3.6S8.4 10 6.4 10 2.8 8.4 2.8 6.4s1.6-3.6 3.6-3.6z"/>
    </g>
</symbol><symbol id="icon-sad" viewBox="0 0 50 50">
    <title>
        empty-state
    </title>
    <g fill-rule="nonzero">
        <path d="M25 49.75C11.331 49.75.25 38.669.25 25S11.331.25 25 .25 49.75 11.331 49.75 25 38.669 49.75 25 49.75zm0-1.5c12.84 0 23.25-10.41 23.25-23.25S37.84 1.75 25 1.75 1.75 12.16 1.75 25 12.16 48.25 25 48.25z"/>
        <path d="M29.502 22.454a.75.75 0 1 1-1.425-.466c.775-2.37 2.31-3.633 4.502-3.633 2.191 0 3.727 1.263 4.502 3.633a.75.75 0 1 1-1.425.466c-.584-1.785-1.574-2.6-3.077-2.6s-2.493.815-3.077 2.6z"/>
        <path d="M14.343 22.458a.75.75 0 0 1-1.423-.475c.777-2.327 2.314-3.565 4.501-3.565 2.187 0 3.724 1.238 4.5 3.565a.75.75 0 0 1-1.422.475c-.582-1.743-1.571-2.54-3.078-2.54s-2.496.797-3.078 2.54z"/>
        <path d="M21.834 32.743a.75.75 0 0 1-1.247-.833c.838-1.256 2.338-1.86 4.413-1.86s3.575.604 4.413 1.86a.75.75 0 0 1-1.247.833c-.52-.78-1.547-1.193-3.166-1.193-1.62 0-2.645.413-3.166 1.193z"/>
    </g>
</symbol><symbol id="icon-search" viewBox="0 0 60 60">
    <path d="M44.5 23.5c0-11.6-9.4-20.9-20.9-20.9C12 2.6 2.7 12 2.7 23.5c0 11.6 9.4 20.9 20.9 20.9 11.5.1 20.9-9.3 20.9-20.9zM60 58.2L58.2 60l-19-19c-4.2 3.7-9.6 6-15.7 6C10.5 47 0 36.5 0 23.5S10.5 0 23.5 0 47 10.5 47 23.5c0 6-2.3 11.5-6 15.7l19 19z"/>
</symbol><symbol id="icon-startover" viewBox="0 0 12 10">
    <path d="M4.041 5.5A3 3 0 1 0 7 2a1 1 0 0 1 0-2 5 5 0 1 1-4.975 5.5H1a.5.5 0 0 1-.416-.777l2-3a.5.5 0 0 1 .832 0l2 3A.5.5 0 0 1 5 5.5h-.959z" fill-rule="nonzero"/>
</symbol><symbol id="icon-stop" viewBox="0 0 10 10">
    <path d="M0 0h10v10H0z" fill-rule="evenodd"/>
</symbol><symbol id="icon-subtitles" viewBox="0 0 15 12">
    <g fill-rule="evenodd">
        <path d="M7.039 5.196a.488.488 0 0 1-.003.689 1.89 1.89 0 0 0-.539 1.309c-.002.486.185.936.528 1.266a.488.488 0 0 1-.003.69.488.488 0 0 1-.689.027 2.66 2.66 0 0 1-.81-1.945c.003-.747.297-1.46.827-2.01.191-.197.5-.21.689-.026z"/>
        <path d="M5.415 3.627a.488.488 0 0 1-.003.69A4.288 4.288 0 0 0 4.19 7.284a3.928 3.928 0 0 0 1.196 2.873.488.488 0 0 1-.003.69.488.488 0 0 1-.689.027c-.959-.927-1.484-2.188-1.478-3.551a5.3 5.3 0 0 1 1.51-3.669c.191-.197.5-.21.689-.027z"/>
        <path d="M1.746 8.707a.431.431 0 0 0 .422-.44.431.431 0 0 0-.422-.441H.843V.88h9.314v1.423c0 .243.188.44.421.44a.431.431 0 0 0 .422-.44V.44a.431.431 0 0 0-.422-.441H.422A.431.431 0 0 0 0 .439v7.828c0 .243.189.44.422.44h1.324z"/>
        <path d="M8.073 3.317a.5.5 0 0 1 .757-.429l4.565 2.735a.5.5 0 0 1 .243.429v2.612a.5.5 0 0 1-.24.427l-4.566 2.76a.5.5 0 0 1-.759-.428V3.317zm1 .883v6.337l3.565-2.155V6.335L9.073 4.2z" fill-rule="nonzero"/>
        <path d="M14 6.5a.5.5 0 1 1 1 0v2a.5.5 0 1 1-1 0v-2z" fill-rule="nonzero"/>
    </g>
</symbol><symbol id="icon-timer" viewBox="0 0 13 16">
    <g fill-rule="nonzero">
        <path d="M6.5 16a6.5 6.5 0 1 1 0-13 6.5 6.5 0 0 1 0 13zm2.066-3.615L7 10.819V6.5a.5.5 0 0 0-1 0v4.526a.5.5 0 0 0 .146.353l1.713 1.713a.5.5 0 1 0 .707-.707z"/>
        <path d="M4.5 1a.5.5 0 0 1 0-1h4a.5.5 0 0 1 0 1h-4z"/>
    </g>
</symbol><symbol id="icon-user" viewBox="0 0 27 27">
    <g transform="translate(1 1)" fill-rule="evenodd">
        <circle cx="12.5" cy="12.5" r="12.5"/>
        <path d="M14 10.4c.269-.822.769-1.233 1.5-1.233s1.231.41 1.5 1.233" stroke-linecap="round" stroke-linejoin="round"/>
        <path d="M8 10.4c.269-.806.769-1.208 1.5-1.208s1.231.402 1.5 1.208" stroke-linecap="round" stroke-linejoin="round"/>
        <path d="M11 14h3v.5a1.5 1.5 0 0 1-3 0V14z"/>
    </g>
</symbol><symbol id="icon-wink" viewBox="0 0 27 27">
    <title>
        avatar
    </title>
    <g transform="translate(1 1)" fill-rule="evenodd">
        <path d="M12.5 25.5c-7.18 0-13-5.82-13-13s5.82-13 13-13 13 5.82 13 13-5.82 13-13 13zm0-1c6.627 0 12-5.373 12-12s-5.373-12-12-12-12 5.373-12 12 5.373 12 12 12z" fill-rule="nonzero"/>
        <path d="M8.167 14.308a.5.5 0 0 1 .788-.616l.363.464a3.5 3.5 0 0 0 2.757 1.344H13a.5.5 0 1 1 0 1h-.925a4.5 4.5 0 0 1-3.545-1.728l-.363-.464z" fill-rule="nonzero"/>
        <path d="M10.013 10.597a.5.5 0 1 1-.63-.777c.443-.36.99-.538 1.62-.538a.5.5 0 0 1 0 1c-.41 0-.732.106-.99.315z" fill-rule="nonzero"/>
        <circle cx="14" cy="10" r="1"/>
    </g>
</symbol><symbol id="icon-ytb" viewBox="0 0 29 22">
    <g stroke-width=".96" fill-rule="evenodd" opacity=".6" stroke-linecap="round" stroke-linejoin="round">
        <path d="M11.24 5.6v10.8l8.64-5.4z"/>
        <path d="M28.52 16.727c0 2.044-1.531 3.744-3.521 3.914-3.362.288-6.12.669-10.399.669-4.12 0-7.037-.381-10.399-.669-1.99-.17-3.521-1.87-3.521-3.914V5.273c0-2.044 1.531-3.744 3.521-3.914C7.563 1.071 10.64.691 14.6.691c4.16 0 7.037.38 10.399.668 1.99.17 3.521 1.87 3.521 3.914v11.454z"/>
    </g>
</symbol></svg>